<?xml version="1.0" encoding="UTF-8"?>
<svg viewBox="0 0 250 39" xmlns="http://www.w3.org/2000/svg">
<path d="m35.942 29.219c1.5625-5.0626 3.375-14.313 5.4375-27.75 1.9687 0 3 0.60937 3.0937 1.8281 0.0313 0.375 0.0469 0.64062 0.0469 0.79687 0.0313 0.15625-0.0156 0.70313-0.1406 1.6406-0.125 0.90624-0.3125 2.1875-0.5625 3.8437-0.2188 1.6563-0.5 3.5781-0.8438 5.7657-0.3437 2.1874-0.7343 4.4687-1.1718 6.8437-1.0625 5.5937-2.1563 10.312-3.2813 14.156-1.125 0.7812-2 0.9062-2.625 0.375-0.2812-0.2813-0.5312-0.6563-0.75-1.125-0.2187-0.5-0.4687-1.0626-0.75-1.6876-0.4062-0.5312-1.1562-1.9374-2.25-4.2187-1.0937-2.2813-1.9844-4.0937-2.6719-5.4375-0.6562-1.3438-1.2968-2.5938-1.9218-3.75-1.4375-2.5938-2.6407-4.1094-3.6094-4.5469-1.125 1.75-3.125 6.5469-6 14.391-0.5 1.375-0.9531 2.6562-1.3594 3.8437-0.4062 1.1563-0.75 2.0937-1.0312 2.8125l-2.9063-0.1406-11.719-27.094c-0.0625-0.15624-0.09375-0.3125-0.09375-0.46874 0-0.15626 0.046875-0.3125 0.14062-0.46876 0.125-0.15624 0.32813-0.29687 0.60938-0.42187 0.53125-0.1875 1.0625-0.28125 1.5938-0.28125s0.90625 0.10938 1.125 0.32812c0.25 0.1875 0.4375 0.4375 0.5625 0.75 0.15625 0.3125 0.28125 0.65626 0.375 1.0313 0.09375 0.375 0.26562 0.8594 0.51562 1.4531 0.28125 0.5937 0.67188 1.4687 1.1719 2.625 0.53125 1.1563 1.0938 2.375 1.6875 3.6563 0.59375 1.2812 1.1875 2.5624 1.7812 3.8437 0.5938 1.25 1.1563 2.4063 1.6875 3.4687 1.125 2.3438 1.8281 3.6563 2.1094 3.9376 3.625-8.9376 5.8594-14.234 6.7031-15.891 0.8438-1.6875 1.375-2.7187 1.5938-3.0937 0.3437-0.53128 0.6093-0.7969 0.7968-0.7969 1.3438 0 3.6094 3 6.7969 9 0.875 1.5937 1.6875 3.125 2.4375 4.5937 1.8438 3.5626 2.9844 5.625 3.4219 6.1876zm37.472 7.125c-0.2813 0.5312-1.0157 0.7968-2.2032 0.7968-1.1562 0-1.7343-0.4218-1.7343-1.2656 0-3.6875-0.0782-6.2188-0.2344-7.5938-0.2813-3.0312-0.875-4.6562-1.7813-4.875-2.25-0.4374-4.0937-0.6562-5.5312-0.6562-1.4063 0-2.5781 0.4375-3.5156 1.3125-0.9063 0.8437-1.6094 2.2656-2.1094 4.2656-0.4688 1.9688-0.8125 4.75-1.0313 8.3438h-3.6093c0.0625-1.7813 0.0937-3.4375 0.0937-4.9688 0-1.5312-0.0312-3.3437-0.0937-5.4375-0.0625-2.125-0.1407-4.4375-0.2344-6.9375-0.1563-2.875-0.2344-5.2969-0.2344-7.2656 0-2 0.125-3.8281 0.375-5.4844 0.3125-0.59374 0.7656-0.89062 1.3594-0.89062 0.7187 0 1.2812 0.26562 1.6875 0.79688 0.4062 0.5 0.625 0.95312 0.6562 1.3594l-0.2343 7.7344c0 2.9063 0.1406 5.0781 0.4218 6.5157 2.8125-1.875 5.7188-2.8126 8.7188-2.8126 0.9687 0 2 0.0782 3.0937 0.2344 2.3438 1.2188 3.875 2.5156 4.5938 3.8906 0.3437 0.7188 0.5625 1.4844 0.6562 2.2969 0.0938 0.8125 0.1563 1.7344 0.1875 2.7657 0.1875 3.5624 0.4219 6.1874 0.7032 7.875zm24.956-7.125c-2.3437 3.6874-5.4687 5.9687-9.375 6.8437-0.9062 0.1875-1.7344 0.2813-2.4844 0.2813h-1.8281c-0.4687-0.0313-1-0.1094-1.5937-0.2344-0.5938-0.125-1.1407-0.3282-1.6407-0.6094-1.1562-0.6562-1.7343-1.5781-1.7343-2.7656-0.125-0.5625-0.1875-1.1875-0.1875-1.875 0-0.7188 0.1562-1.6563 0.4687-2.8125 0.3125-1.1563 0.875-2.4063 1.6875-3.75 0.8438-1.3438 1.8594-2.5781 3.0469-3.7031 2.4687-2.375 5.1406-3.9063 8.0156-4.5938 0.8438-0.1875 1.6094-0.2812 2.2969-0.2812 0.7187 0 1.3594 0.0468 1.9219 0.1406 1.8125 0 3.0312 1.2344 3.6559 3.7031 0.407 1.5625 0.641 3.75 0.703 6.5625 0.094 2.7812 0.172 4.9375 0.235 6.4688 0.094 1.5 0.297 2.875 0.609 4.125h-2.7654c-0.125-0.8438-0.2188-1.5938-0.2813-2.25-0.0625-0.6563-0.125-1.2657-0.1875-1.8282-0.1562-1.3125-0.3437-2.4531-0.5625-3.4218zm-0.1875-7.2657c0-1.8125-0.8906-2.7187-2.6719-2.7187-0.2187-0.0313-0.4375-0.0469-0.6562-0.0469-2.2813 0-4.6875 1.0937-7.2188 3.2813-1.1875 1-2.2031 2.125-3.0468 3.375-1.25 1.7812-1.875 3.375-1.875 4.7812 0 1.8438 1.0625 2.9375 3.1875 3.2812 2.8125-0.0624 5.5-1.3437 8.0625-3.8437 1.0937-1.0937 2-2.2813 2.7187-3.5625 1-1.7188 1.5-3.2344 1.5-4.5469zm18.065 10.547 0.094-7.5c0-1.1875-0.109-2.2031-0.328-3.0469h-7.266l-0.093-3.2343h7.031v-12.094c0.094-0.28125 0.281-0.5625 0.562-0.84375 0.438-0.4375 0.797-0.65625 1.079-0.65625 0.312 0 0.578 0.03125 0.796 0.09375 0.219 0.0625 0.454 0.28125 0.704 0.65625 0.5 2.0625 0.75 5.1719 0.75 9.3281 0 1.0313 0.046 2.0469 0.14 3.0469 1-0.125 2-0.1875 3-0.1875h2.438c0.593 0 1.14-0.0313 1.64-0.0937l-0.14 3.375-6.844-0.1876 0.234 16.172c-0.562 0.25-1.047 0.375-1.453 0.375-1.562 0-2.344-1.7343-2.344-5.2031zm26.691 1.2188c2.75 0 6.891-1.25 12.422-3.75 0.344 0 0.625 0.125 0.844 0.375 0.218 0.2187 0.328 0.4843 0.328 0.7968-1.25 2.125-3.641 3.7813-7.172 4.9688s-6.828 1.3906-9.891 0.6094c-3.468-0.9063-5.578-2.8594-6.328-5.8594-0.062-0.5938-0.094-1.3906-0.094-2.3906s0.25-2.3126 0.75-3.9376c0.532-1.6562 1.422-3.2187 2.672-4.6874 1.25-1.4688 2.719-2.625 4.407-3.4688 1.687-0.8438 3.484-1.2656 5.39-1.2656 1.813 0 3.844 0.625 6.094 1.875 1.062 0.5937 1.906 1.2656 2.531 2.0156s0.938 1.5156 0.938 2.2969c0 0.2187-0.016 0.4375-0.047 0.6562-0.063 1.9063-0.985 3.1094-2.766 3.6094-0.781 0.2187-1.687 0.3281-2.719 0.3281l-6.75-0.2812c-2.25 0-3.968 0.4844-5.156 1.4531-0.687 0.5313-1.172 1.3281-1.453 2.3906 0.781 2.8438 2.781 4.2657 6 4.2657zm8.344-14.484c-0.688-0.5-1.406-0.8594-2.156-1.0782-0.75-0.2187-1.375-0.3281-1.875-0.3281s-1.313 0.1719-2.438 0.5157c-1.125 0.3124-2.125 0.6718-3 1.0781-2.156 1-3.234 2.0469-3.234 3.1406 2.5 0.2187 4.375 0.3281 5.625 0.3281 3.468 0 5.812-0.2968 7.031-0.8906 0.75-0.3125 1.125-0.7031 1.125-1.1719 0-0.5625-0.359-1.0937-1.078-1.5937zm13.284-0.375c-0.062-0.1563-0.094-0.3282-0.094-0.5156 0-0.2188 0.079-0.5 0.235-0.8438s0.375-0.6406 0.656-0.8906c0.313-0.25 0.641-0.3594 0.984-0.3282 0.375 0 0.672 0.2188 0.891 0.6563l7.875 14.625c0.25-0.375 0.641-1.0625 1.172-2.0625 0.562-1.0312 1.187-2.1875 1.875-3.4688 0.719-1.2812 1.453-2.6093 2.203-3.9843 0.781-1.4063 1.5-2.6875 2.156-3.8438 1.5-2.6562 2.391-3.9843 2.672-3.9843 0.656 0 1.125 0.25 1.406 0.75 0.313 0.4687 0.469 0.8281 0.469 1.0781v0.5156c-1.75 3.8125-3.375 7.3281-4.875 10.547-1.469 3.2187-2.453 5.3125-2.953 6.2812-0.469 0.9375-0.891 1.6875-1.266 2.25-0.656 0.9688-1.296 1.4532-1.921 1.4532s-1.344-0.4844-2.157-1.4532c-0.812-1-1.734-2.3281-2.765-3.9844-1.813-3-4-7.2656-6.563-12.797zm38.831 14.859c2.75 0 6.891-1.25 12.422-3.75 0.344 0 0.625 0.125 0.844 0.375 0.219 0.2187 0.328 0.4843 0.328 0.7968-1.25 2.125-3.64 3.7813-7.172 4.9688-3.531 1.1875-6.828 1.3906-9.89 0.6094-3.469-0.9063-5.578-2.8594-6.328-5.8594-0.063-0.5938-0.094-1.3906-0.094-2.3906s0.25-2.3126 0.75-3.9376c0.531-1.6562 1.422-3.2187 2.672-4.6874 1.25-1.4688 2.718-2.625 4.406-3.4688 1.687-0.8438 3.484-1.2656 5.391-1.2656 1.812 0 3.843 0.625 6.093 1.875 1.063 0.5937 1.907 1.2656 2.532 2.0156s0.937 1.5156 0.937 2.2969c0 0.2187-0.016 0.4375-0.047 0.6562-0.062 1.9063-0.984 3.1094-2.765 3.6094-0.782 0.2187-1.688 0.3281-2.719 0.3281l-6.75-0.2812c-2.25 0-3.969 0.4844-5.156 1.4531-0.688 0.5313-1.172 1.3281-1.454 2.3906 0.782 2.8438 2.782 4.2657 6 4.2657zm8.344-14.484c-0.687-0.5-1.406-0.8594-2.156-1.0782-0.75-0.2187-1.375-0.3281-1.875-0.3281s-1.313 0.1719-2.438 0.5157c-1.125 0.3124-2.125 0.6718-3 1.0781-2.156 1-3.234 2.0469-3.234 3.1406 2.5 0.2187 4.375 0.3281 5.625 0.3281 3.469 0 5.813-0.2968 7.031-0.8906 0.75-0.3125 1.125-0.7031 1.125-1.1719 0-0.5625-0.359-1.0937-1.078-1.5937zm35.878 0.6562c-1.312-0.9375-3-1.4062-5.062-1.4062-1.938 0-3.735 0.3594-5.391 1.0781-3.125 1.3125-5.265 3-6.422 5.0625-0.5 0.9375-0.75 1.9375-0.75 3v1.5938c0 0.8437 0.157 2 0.469 3.4687 0.313 1.4375 0.469 2.9063 0.469 4.4063-0.656 0.0312-1.188 0.1093-1.594 0.2343s-0.75 0.1875-1.031 0.1875-0.531-0.125-0.75-0.375c-0.188-0.25-0.406-0.7344-0.656-1.4531-0.032-0.1875-0.094-0.7187-0.188-1.5937s-0.219-1.9376-0.375-3.1876c-0.125-1.25-0.281-2.6093-0.469-4.0781-0.156-1.5-0.312-2.9687-0.468-4.4062-0.344-3.125-0.61-5.4219-0.797-6.8907 0-0.75 0.547-1.125 1.64-1.125 0.657 0 1.172 0.2813 1.547 0.8438 0.375 0.5312 0.672 1.1562 0.891 1.875 0.219 0.6875 0.359 1.375 0.422 2.0625 0.093 0.6875 0.172 1.1719 0.234 1.4531 4.125-3.6875 9.25-5.5312 15.375-5.5312 0.688 0 1.406 0.0156 2.156 0.0468 0.188-0.0312 0.422-0.0468 0.703-0.0468 0.282 0 0.563 0.1875 0.844 0.5625 0.344 0.4375 0.516 0.9687 0.516 1.5937 0 1.5625-0.438 2.4375-1.313 2.625z" fill="#231613"/>
</svg>
