<?xml version="1.0" encoding="UTF-8"?>
<svg viewBox="0 0 250 39" xmlns="http://www.w3.org/2000/svg">
<path d="m35.942 29.219c1.5625-5.0626 3.375-14.313 5.4375-27.75 1.9687 0 3 0.60937 3.0937 1.8281 0.0313 0.375 0.0469 0.64062 0.0469 0.79687 0.0313 0.15625-0.0156 0.70313-0.1406 1.6406-0.125 0.90624-0.3125 2.1875-0.5625 3.8437-0.2188 1.6563-0.5 3.5781-0.8438 5.7657-0.3437 2.1874-0.7343 4.4687-1.1718 6.8437-1.0625 5.5937-2.1563 10.312-3.2813 14.156-1.125 0.7812-2 0.9062-2.625 0.375-0.2812-0.2813-0.5312-0.6563-0.75-1.125-0.2187-0.5-0.4687-1.0626-0.75-1.6876-0.4062-0.5312-1.1562-1.9374-2.25-4.2187-1.0937-2.2813-1.9844-4.0937-2.6719-5.4375-0.6562-1.3438-1.2968-2.5938-1.9218-3.75-1.4375-2.5938-2.6407-4.1094-3.6094-4.5469-1.125 1.75-3.125 6.5469-6 14.391-0.5 1.375-0.9531 2.6562-1.3594 3.8437-0.4062 1.1563-0.75 2.0937-1.0312 2.8125l-2.9063-0.1406-11.719-27.094c-0.0625-0.15624-0.09375-0.3125-0.09375-0.46874 0-0.15626 0.046875-0.3125 0.14062-0.46876 0.125-0.15624 0.32813-0.29687 0.60938-0.42187 0.53125-0.1875 1.0625-0.28125 1.5938-0.28125s0.90625 0.10938 1.125 0.32812c0.25 0.1875 0.4375 0.4375 0.5625 0.75 0.15625 0.3125 0.28125 0.65626 0.375 1.0313 0.09375 0.375 0.26562 0.8594 0.51562 1.4531 0.28125 0.5937 0.67188 1.4687 1.1719 2.625 0.53125 1.1563 1.0938 2.375 1.6875 3.6563 0.59375 1.2812 1.1875 2.5624 1.7812 3.8437 0.5938 1.25 1.1563 2.4063 1.6875 3.4687 1.125 2.3438 1.8281 3.6563 2.1094 3.9376 3.625-8.9376 5.8594-14.234 6.7031-15.891 0.8438-1.6875 1.375-2.7187 1.5938-3.0937 0.3437-0.53128 0.6093-0.7969 0.7968-0.7969 1.3438 0 3.6094 3 6.7969 9 0.875 1.5937 1.6875 3.125 2.4375 4.5937 1.8438 3.5626 2.9844 5.625 3.4219 6.1876zm37.472 7.125c-0.2813 0.5312-1.0157 0.7968-2.2032 0.7968-1.1562 0-1.7343-0.4218-1.7343-1.2656 0-3.6875-0.0782-6.2188-0.2344-7.5938-0.2813-3.0312-0.875-4.6562-1.7813-4.875-2.25-0.4374-4.0937-0.6562-5.5312-0.6562-1.4063 0-2.5781 0.4375-3.5156 1.3125-0.9063 0.8437-1.6094 2.2656-2.1094 4.2656-0.4688 1.9688-0.8125 4.75-1.0313 8.3438h-3.6093c0.0625-1.7813 0.0937-3.4375 0.0937-4.9688 0-1.5312-0.0312-3.3437-0.0937-5.4375-0.0625-2.125-0.1407-4.4375-0.2344-6.9375-0.1563-2.875-0.2344-5.2969-0.2344-7.2656 0-2 0.125-3.8281 0.375-5.4844 0.3125-0.59374 0.7656-0.89062 1.3594-0.89062 0.7187 0 1.2812 0.26562 1.6875 0.79688 0.4062 0.5 0.625 0.95312 0.6562 1.3594l-0.2343 7.7344c0 2.9063 0.1406 5.0781 0.4218 6.5157 2.8125-1.875 5.7188-2.8126 8.7188-2.8126 0.9687 0 2 0.0782 3.0937 0.2344 2.3438 1.2188 3.875 2.5156 4.5938 3.8906 0.3437 0.7188 0.5625 1.4844 0.6562 2.2969 0.0938 0.8125 0.1563 1.7344 0.1875 2.7657 0.1875 3.5624 0.4219 6.1874 0.7032 7.875zm24.956-7.125c-2.3437 3.6874-5.4687 5.9687-9.375 6.8437-0.9062 0.1875-1.7344 0.2813-2.4844 0.2813h-1.8281c-0.4687-0.0313-1-0.1094-1.5937-0.2344-0.5938-0.125-1.1407-0.3282-1.6407-0.6094-1.1562-0.6562-1.7343-1.5781-1.7343-2.7656-0.125-0.5625-0.1875-1.1875-0.1875-1.875 0-0.7188 0.1562-1.6563 0.4687-2.8125 0.3125-1.1563 0.875-2.4063 1.6875-3.75 0.8438-1.3438 1.8594-2.5781 3.0469-3.7031 2.4687-2.375 5.1406-3.9063 8.0156-4.5938 0.8438-0.1875 1.6094-0.2812 2.2969-0.2812 0.7187 0 1.3594 0.0468 1.9219 0.1406 1.8125 0 3.0312 1.2344 3.6559 3.7031 0.407 1.5625 0.641 3.75 0.703 6.5625 0.094 2.7812 0.172 4.9375 0.235 6.4688 0.094 1.5 0.297 2.875 0.609 4.125h-2.7654c-0.125-0.8438-0.2188-1.5938-0.2813-2.25-0.0625-0.6563-0.125-1.2657-0.1875-1.8282-0.1562-1.3125-0.3437-2.4531-0.5625-3.4218zm-0.1875-7.2657c0-1.8125-0.8906-2.7187-2.6719-2.7187-0.2187-0.0313-0.4375-0.0469-0.6562-0.0469-2.2813 0-4.6875 1.0937-7.2188 3.2813-1.1875 1-2.2031 2.125-3.0468 3.375-1.25 1.7812-1.875 3.375-1.875 4.7812 0 1.8438 1.0625 2.9375 3.1875 3.2812 2.8125-0.0624 5.5-1.3437 8.0625-3.8437 1.0937-1.0937 2-2.2813 2.7187-3.5625 1-1.7188 1.5-3.2344 1.5-4.5469zm18.065 10.547 0.094-7.5c0-1.1875-0.109-2.2031-0.328-3.0469h-7.266l-0.093-3.2343h7.031v-12.094c0.094-0.28125 0.281-0.5625 0.562-0.84375 0.438-0.4375 0.797-0.65625 1.079-0.65625 0.312 0 0.578 0.03125 0.796 0.09375 0.219 0.0625 0.454 0.28125 0.704 0.65625 0.5 2.0625 0.75 5.1719 0.75 9.3281 0 1.0313 0.046 2.0469 0.14 3.0469 1-0.125 2-0.1875 3-0.1875h2.438c0.593 0 1.14-0.0313 1.64-0.0937l-0.14 3.375-6.844-0.1876 0.234 16.172c-0.562 0.25-1.047 0.375-1.453 0.375-1.562 0-2.344-1.7343-2.344-5.2031zm26.691 1.2188c2.75 0 6.891-1.25 12.422-3.75 0.344 0 0.625 0.125 0.844 0.375 0.218 0.2187 0.328 0.4843 0.328 0.7968-1.25 2.125-3.641 3.7813-7.172 4.9688s-6.828 1.3906-9.891 0.6094c-3.468-0.9063-5.578-2.8594-6.328-5.8594-0.062-0.5938-0.094-1.3906-0.094-2.3906s0.25-2.3126 0.75-3.9376c0.532-1.6562 1.422-3.2187 2.672-4.6874 1.25-1.4688 2.719-2.625 4.407-3.4688 1.687-0.8438 3.484-1.2656 5.39-1.2656 1.813 0 3.844 0.625 6.094 1.875 1.062 0.5937 1.906 1.2656 2.531 2.0156s0.938 1.5156 0.938 2.2969c0 0.2187-0.016 0.4375-0.047 0.6562-0.063 1.9063-0.985 3.1094-2.766 3.6094-0.781 0.2187-1.687 0.3281-2.719 0.3281l-6.75-0.2812c-2.25 0-3.968 0.4844-5.156 1.4531-0.687 0.5313-1.172 1.3281-1.453 2.3906 0.781 2.8438 2.781 4.2657 6 4.2657zm8.344-14.484c-0.688-0.5-1.406-0.8594-2.156-1.0782-0.75-0.2187-1.375-0.3281-1.875-0.3281s-1.313 0.1719-2.438 0.5157c-1.125 0.3124-2.125 0.6718-3 1.0781-2.156 1-3.234 2.0469-3.234 3.1406 2.5 0.2187 4.375 0.3281 5.625 0.3281 3.468 0 5.812-0.2968 7.031-0.8906 0.75-0.3125 1.125-0.7031 1.125-1.1719 0-0.5625-0.359-1.0937-1.078-1.5937zm13.284-0.375c-0.062-0.1563-0.094-0.3282-0.094-0.5156 0-0.2188 0.079-0.5 0.235-0.8438s0.375-0.6406 0.656-0.8906c0.313-0.25 0.641-0.3594 0.984-0.3282 0.375 0 0.672 0.2188 0.891 0.6563l7.875 14.625c0.25-0.375 0.641-1.0625 1.172-2.0625 0.562-1.0312 1.187-2.1875 1.875-3.4688 0.719-1.2812 1.453-2.6093 2.203-3.9843 0.781-1.4063 1.5-2.6875 2.156-3.8438 1.5-2.6562 2.391-3.9843 2.672-3.9843 0.656 0 1.125 0.25 1.406 0.75 0.313 0.4687 0.469 0.8281 0.469 1.0781v0.5156c-1.75 3.8125-3.375 7.3281-4.875 10.547-1.469 3.2187-2.453 5.3125-2.953 6.2812-0.469 0.9375-0.891 1.6875-1.266 2.25-0.656 0.9688-1.296 1.4532-1.921 1.4532s-1.344-0.4844-2.157-1.4532c-0.812-1-1.734-2.3281-2.765-3.9844-1.813-3-4-7.2656-6.563-12.797zm38.831 14.859c2.75 0 6.891-1.25 12.422-3.75 0.344 0 0.625 0.125 0.844 0.375 0.219 0.2187 0.328 0.4843 0.328 0.7968-1.25 2.125-3.64 3.7813-7.172 4.9688-3.531 1.1875-6.828 1.3906-9.89 0.6094-3.469-0.9063-5.578-2.8594-6.328-5.8594-0.063-0.5938-0.094-1.3906-0.094-2.3906s0.25-2.3126 0.75-3.9376c0.531-1.6562 1.422-3.2187 2.672-4.6874 1.25-1.4688 2.718-2.625 4.406-3.4688 1.687-0.8438 3.484-1.2656 5.391-1.2656 1.812 0 3.843 0.625 6.093 1.875 1.063 0.5937 1.907 1.2656 2.532 2.0156s0.937 1.5156 0.937 2.2969c0 0.2187-0.016 0.4375-0.047 0.6562-0.062 1.9063-0.984 3.1094-2.765 3.6094-0.782 0.2187-1.688 0.3281-2.719 0.3281l-6.75-0.2812c-2.25 0-3.969 0.4844-5.156 1.4531-0.688 0.5313-1.172 1.3281-1.454 2.3906 0.782 2.8438 2.782 4.2657 6 4.2657zm8.344-14.484c-0.687-0.5-1.406-0.8594-2.156-1.0782-0.75-0.2187-1.375-0.3281-1.875-0.3281s-1.313 0.1719-2.438 0.5157c-1.125 0.3124-2.125 0.6718-3 1.0781-2.156 1-3.234 2.0469-3.234 3.1406 2.5 0.2187 4.375 0.3281 5.625 0.3281 3.469 0 5.813-0.2968 7.031-0.8906 0.75-0.3125 1.125-0.7031 1.125-1.1719 0-0.5625-0.359-1.0937-1.078-1.5937zm35.878 0.6562c-1.312-0.9375-3-1.4062-5.062-1.4062-1.938 0-3.735 0.3594-5.391 1.0781-3.125 1.3125-5.265 3-6.422 5.0625-0.5 0.9375-0.75 1.9375-0.75 3v1.5938c0 0.8437 0.157 2 0.469 3.4687 0.313 1.4375 0.469 2.9063 0.469 4.4063-0.656 0.0312-1.188 0.1093-1.594 0.2343s-0.75 0.1875-1.031 0.1875-0.531-0.125-0.75-0.375c-0.188-0.25-0.406-0.7344-0.656-1.4531-0.032-0.1875-0.094-0.7187-0.188-1.5937s-0.219-1.9376-0.375-3.1876c-0.125-1.25-0.281-2.6093-0.469-4.0781-0.156-1.5-0.312-2.9687-0.468-4.4062-0.344-3.125-0.61-5.4219-0.797-6.8907 0-0.75 0.547-1.125 1.64-1.125 0.657 0 1.172 0.2813 1.547 0.8438 0.375 0.5312 0.672 1.1562 0.891 1.875 0.219 0.6875 0.359 1.375 0.422 2.0625 0.093 0.6875 0.172 1.1719 0.234 1.4531 4.125-3.6875 9.25-5.5312 15.375-5.5312 0.688 0 1.406 0.0156 2.156 0.0468 0.188-0.0312 0.422-0.0468 0.703-0.0468 0.282 0 0.563 0.1875 0.844 0.5625 0.344 0.4375 0.516 0.9687 0.516 1.5937 0 1.5625-0.438 2.4375-1.313 2.625z" fill="#231613"/>
<path d="m35.942 29.219-0.6315 0.4911 0.9429 1.2124 0.453-1.4676-0.7644-0.2359zm5.4375-27.75v-0.8h-0.6866l-0.1042 0.67863 0.7908 0.12137zm3.0937 1.8281-0.7976 0.06135 4e-4 0.00508 0.7972-0.06643zm0.0469 0.79687h-0.8v0.07922l0.0155 0.07767 0.7845-0.15689zm-0.1406 1.6406 0.7925 0.10931 5e-4 -0.00358-0.793-0.10573zm-0.5625 3.8437-0.7911-0.1194-0.0011 0.00732-9e-4 0.00733 0.7931 0.10475zm-2.0156 12.609 0.7859 0.1493 8e-4 -0.0044-0.7867-0.1449zm-3.2813 14.156 0.4563 0.657 0.2321-0.1611 0.0794-0.2712-0.7678-0.2247zm-2.625 0.375-0.5657 0.5656 0.0229 0.0229 0.0247 0.021 0.5181-0.6095zm-0.75-1.125-0.7329 0.3206 0.0039 0.0089 0.0041 0.0088 0.7249-0.3383zm-0.75-1.6876 0.7295-0.3282-0.0379-0.0843-0.0561-0.0734-0.6355 0.4859zm-4.9219-9.6562-0.7188 0.3511 0.0032 0.0067 0.0034 0.0066 0.7122-0.3644zm-1.9218-3.75 0.7038-0.3804-0.0041-0.0074-0.6997 0.3878zm-3.6094-4.5469 0.3293-0.7291-0.629-0.284-0.3733 0.5805 0.673 0.4326zm-6 14.391-0.7512-0.2754-7e-4 2e-3 0.7519 0.2734zm-1.3594 3.8437 0.7548 0.2652 0.0021-0.0062-0.7569-0.259zm-1.0312 2.8125-0.0387 0.7991 0.5742 0.0277 0.2095-0.5353-0.745-0.2915zm-2.9063-0.1406-0.7343 0.3176 0.1979 0.4574 0.4977 0.024 0.0387-0.799zm-11.719-27.094-0.74278 0.29708 0.004119 0.0103 0.004402 0.0102 0.73426-0.31758zm0.046875-0.9375-0.6247-0.49975-0.033614 0.04202-0.027685 0.04614 0.68599 0.41159zm0.60938-0.42187-0.26626-0.75439-0.02978 0.01051-0.02887 0.01283 0.32491 0.73105zm2.7188 0.04687-0.56569 0.56569 0.04021 0.0402 0.04548 0.03412 0.48-0.64001zm0.5625 0.75-0.74278 0.29712 0.01236 0.03089 0.01488 0.02977 0.71554-0.35778zm0.89062 2.4844-0.7373 0.3104 0.0068 0.0162 0.00751 0.0159 0.72299-0.3425zm1.1719 2.625-0.73429 0.3175 0.00358 0.0083 0.00377 0.0082 0.72694-0.334zm3.4687 7.5-0.72587 0.3364 0.00326 0.0068 0.72261-0.3432zm1.6875 3.4687 0.7213-0.3462-0.0057-0.0115-0.7156 0.3577zm2.1094 3.9376-0.5657 0.5656 0.8534 0.8534 0.4536-1.1184-0.7413-0.3006zm6.7031-15.891 0.7129 0.3632 0.0027-0.0054-0.7156-0.3578zm1.5938-3.0937-0.6717-0.43463-0.01 0.01553-0.0094 0.01598 0.6911 0.40312zm7.5937 8.2031-0.7065 0.3754 0.0052 0.0096 0.7013-0.385zm2.4375 4.5937-0.7125 0.3639 2e-3 0.0039 0.7105-0.3678zm4.1863 6.4235c1.582-5.1258 3.4018-14.43 5.4638-27.865l-1.5815-0.24274c-2.0629 13.44-3.8682 22.636-5.4111 27.635l1.5288 0.4719zm4.6731-27.186c0.9235 0 1.5062 0.14674 1.843 0.34577 0.2854 0.16864 0.4258 0.38833 0.4531 0.74371l1.5953-0.12271c-0.0664-0.86337-0.4886-1.5577-1.2344-1.9985-0.6945-0.41034-1.6118-0.56829-2.657-0.56829v1.6zm2.2965 1.0946c0.0312 0.37496 0.0441 0.61092 0.0441 0.73044h1.6c0-0.19298-0.0184-0.48827-0.0496-0.86331l-1.5945 0.13287zm0.0596 0.88733c-0.0107-0.05384-0.0047-0.06636-0.0065 0.01577-0.0014 0.06443-0.0068 0.15828-0.0178 0.28636-0.0219 0.25518-0.063 0.61208-0.1248 1.0759l1.586 0.21147c0.0631-0.47371 0.108-0.859 0.133-1.1507 0.0124-0.14535 0.0207-0.27611 0.0232-0.38746 0.0021-0.09365 0.0023-0.23313-0.0241-0.36509l-1.569 0.31378zm-0.1486 1.3744c-0.1243 0.90119-0.3112 2.1785-0.5611 3.8336l1.5821 0.23881c0.2502-1.6574 0.4383-2.9425 0.564-3.8538l-1.585-0.21861zm-0.5631 3.8483c-0.2177 1.648-0.4979 3.5632-0.841 5.7462l1.5806 0.2483c0.3445-2.192 0.6268-4.1206 0.8466-5.785l-1.5862-0.20951zm-0.841 5.7462c-0.3425 2.1799-0.732 4.4543-1.1683 6.823l1.5735 0.2898c0.4387-2.3813 0.8305-4.6694 1.1754-6.8645l-1.5806-0.2483zm-1.1675 6.8186c-1.0595 5.578-2.1477 10.27-3.2631 14.081l1.5356 0.4495c1.1346-3.8765 2.2339-8.6222 3.2994-14.232l-1.5719-0.2986zm-2.9516 13.648c-0.511 0.3548-0.892 0.5069-1.1568 0.5448-0.2305 0.0329-0.3706-0.0176-0.4938-0.1223l-1.0362 1.2191c0.5018 0.4265 1.1117 0.5792 1.7562 0.4871 0.6102-0.0872 1.2292-0.3882 1.8432-0.8146l-0.9126-1.3141zm-1.603 0.4664c-0.1989-0.1989-0.4002-0.4893-0.5907-0.8977l-1.4499 0.6767c0.2469 0.5291 0.5456 0.9887 0.9092 1.3523l1.1314-1.1313zm-0.5828-0.88c-0.2201-0.5031-0.4712-1.0682-0.7534-1.6951l-1.459 0.6565c0.2804 0.6231 0.5292 1.183 0.7466 1.6799l1.4658-0.6413zm-0.8474-1.8528c-0.3452-0.4514-1.0582-1.7721-2.1641-4.0787l-1.4428 0.6918c1.0816 2.2559 1.8686 3.7477 2.3359 4.3588l1.271-0.9719zm-2.1641-4.0787c-1.0951-2.2839-1.989-4.1034-2.6811-5.456l-1.4244 0.7288c0.683 1.3349 1.5703 3.1404 2.6627 5.419l1.4428-0.6918zm-2.6744-5.4427c-0.6604-1.3523-1.3061-2.6122-1.937-3.7793l-1.4075 0.7608c0.6191 1.1454 1.2547 2.3855 1.9068 3.7207l1.4377-0.7022zm-1.941-3.7867c-0.7301-1.3174-1.4144-2.3863-2.0536-3.1916-0.6258-0.7884-1.2656-1.3982-1.9262-1.6966l-0.6586 1.4582c0.3081 0.1392 0.7543 0.5059 1.3316 1.2332 0.5639 0.7103 1.2 1.696 1.9073 2.9724l1.3995-0.7756zm-4.9821-4.5917c-0.6051 0.9414-1.41 2.6384-2.4092 5.0349-1.0063 2.4136-2.2295 5.5859-3.6689 9.513l1.5022 0.5507c1.4356-3.9167 2.6499-7.0647 3.6435-9.448 1.0008-2.4004 1.7585-3.9767 2.2783-4.7854l-1.3459-0.8652zm-6.0789 14.55c-0.5014 1.379-0.9563 2.6651-1.3644 3.8581l1.5138 0.518c0.4044-1.182 0.8558-2.4584 1.3543-3.8294l-1.5037-0.5467zm-1.3623 3.8519c-0.4047 1.1519-0.745 2.0797-1.0214 2.7862l1.49 0.583c0.286-0.731 0.6332-1.6782 1.041-2.8388l-1.5096-0.5304zm-0.2378 2.2786-2.9062-0.1406-0.0774 1.5981 2.9063 0.1407 0.0773-1.5982zm-2.2106 0.3409-11.719-27.094-1.4685 0.63516 11.719 27.094 1.4686-0.6352zm-11.71-27.073c-0.02764-0.06909-0.03653-0.12478-0.03653-0.17163h-1.6c0 0.26564 0.053605 0.52245 0.15097 0.76582l1.4856-0.59419zm-0.03653-0.17163c0 0.0031-6.4e-4 0.00235 0.00142-0.0045 0.00226-0.00753 0.00859-0.02498 0.0252-0.05266l-1.372-0.82319c-0.15579 0.25964-0.25463 0.55649-0.25463 0.88035h1.6zm-0.03468 0.031c0.0134-0.01675 0.08812-0.09215 0.30959-0.19058l-0.64982-1.4621c-0.34103 0.15157-0.67256 0.35742-0.90916 0.65317l1.2494 0.99951zm0.25094-0.16724c0.45092-0.15915 0.89229-0.23564 1.3275-0.23564v-1.6c-0.62731 0-1.2484 0.11101-1.86 0.32686l0.53252 1.5088zm1.3275-0.23564c0.21508 0 0.36178 0.02264 0.45569 0.05003 0.09166 0.02674 0.11114 0.05129 0.10362 0.04378l1.1314-1.1314c-0.44583-0.44584-1.0893-0.56244-1.6907-0.56244v1.6zm0.645 0.16813c0.12357 0.09268 0.22485 0.21994 0.29972 0.40711l1.4856-0.59423c-0.17513-0.43783-0.44885-0.81057-0.82528-1.0929l-0.96 1.28zm0.32696 0.46777c0.12755 0.2551 0.23335 0.5432 0.31443 0.8675l1.5522-0.3881c-0.10642-0.42567-0.25062-0.82505-0.43557-1.195l-1.4311 0.71555zm0.31443 0.8675c0.10805 0.4322 0.29751 0.9594 0.55443 1.5695l1.4746-0.6208c-0.24308-0.5774-0.39737-1.019-0.47682-1.3368l-1.5522 0.3881zm0.56874 1.6016c0.27528 0.5811 0.66157 1.4461 1.1606 2.6l1.4686-0.635c-0.50099-1.1586-0.89595-2.0436-1.1832-2.65l-1.446 0.685zm1.1679 2.6165c0.53165 1.1571 1.0945 2.3767 1.6886 3.6586l1.4517-0.6727c-0.59343-1.2806-1.1556-2.4985-1.6864-3.6539l-1.4539 0.668zm1.6886 3.6586 0.01392 0.03c0.00116 0.0026 0.00232 0.0051 0.00348 0.0076s0.00232 5e-3 0.00347 0.0075l0.0348 0.075c0.00115 0.0025 0.00231 5e-3 0.00347 0.0075s0.00232 5e-3 0.00348 0.0076l0.02784 0.06c0.00115 0.0025 0.00231 5e-3 0.00347 0.0075l0.01392 0.03c0.00116 0.0025 0.00232 0.0051 0.00348 0.0076l0.01392 0.03c0.00115 0.0025 0.00231 5e-3 0.00347 0.0075l0.02784 0.06c0.00116 0.0026 0.00232 0.0051 0.00348 0.0076 0.00115 0.0025 0.00231 5e-3 0.00347 0.0075l0.03132 0.0675c0.00115 0.0025 0.00231 5e-3 0.00347 0.0075l0.00348 0.0075c0.00116 0.0025 0.00232 5e-3 0.00348 0.0076l0.02436 0.0525c0.00115 0.0025 0.00231 5e-3 0.00347 0.0075l0.0174 0.0375c0.00116 0.0025 0.00232 0.0051 0.00348 0.0076l0.01044 0.0225c0.00115 0.0025 0.00231 5e-3 0.00347 0.0075l0.03132 0.0675c0.00115 0.0026 0.00231 0.0051 0.00347 0.0076l0.03132 0.0675c0.00115 0.0025 0.00231 5e-3 0.00347 0.0075l0.00696 0.015c0.00116 0.0025 0.00232 5e-3 0.00348 0.0076l0.02088 0.045c0.00116 0.0025 0.00231 5e-3 0.00347 0.0075l0.02088 0.045c0.00116 0.0025 0.00232 0.0051 0.00348 0.0076l0.00696 0.015c0.00116 0.0025 0.00231 5e-3 0.00347 0.0075l0.03132 0.0675c0.00116 0.0025 0.00231 5e-3 0.00347 0.0075 0.00116 0.0026 0.00232 0.0051 0.00348 0.0076l0.02784 0.06c0.00116 0.0025 0.00231 5e-3 0.00347 0.0075l0.01044 0.0225c0.00116 0.0025 0.00232 5e-3 0.00348 0.0076l0.0174 0.0375c0.00116 0.0025 0.00231 5e-3 0.00347 0.0075l0.02436 0.0525c0.00116 0.0025 0.00232 0.0051 0.00348 0.0076l0.00348 0.0075c0.00116 0.0025 0.00231 5e-3 0.00347 0.0075l0.03132 0.0675c0.00116 0.0025 0.00231 5e-3 0.00347 0.0075l0.00348 0.0075c0.00116 0.0026 0.00232 0.0051 0.00348 0.0076l0.02436 0.0525c0.00116 0.0025 0.00231 5e-3 0.00347 0.0075l0.01392 0.03c0.00116 0.0025 0.00232 5e-3 0.00348 0.0076l0.01392 0.03c0.00116 0.0025 0.00232 5e-3 0.00347 0.0075l0.02784 0.06c0.00116 0.0025 0.00232 0.0051 0.00348 0.0076s0.00232 5e-3 0.00347 0.0075l0.03132 0.0675c0.00116 0.0025 0.00232 5e-3 0.00347 0.0075l0.00696 0.015c0.00116 0.0026 0.00232 0.0051 0.00348 0.0076l0.02088 0.045c0.00116 0.0025 0.00232 5e-3 0.00347 0.0075l0.0174 0.0375c0.00116 0.0025 0.00232 5e-3 0.00348 0.0076l0.01044 0.0225c0.00116 0.0025 0.00232 5e-3 0.00347 0.0075l0.03132 0.0675c0.00116 0.0025 0.00232 0.0051 0.00347 0.0076l0.03132 0.0675c0.00116 0.0025 0.00232 5e-3 0.00347 0.0075l0.01044 0.0225c0.00116 0.0026 0.00232 0.0051 0.00348 0.0076l0.0174 0.0375c0.00116 0.0025 0.00232 5e-3 0.00347 0.0075l0.02088 0.045c0.00116 0.0025 0.00232 5e-3 0.00348 0.0076l0.00696 0.015c0.00116 0.0025 0.00232 5e-3 0.00347 0.0075l0.0348 0.075c0.00115 0.0026 0.00231 0.0051 0.00347 0.0076l0.03132 0.0675c0.00115 0.0025 0.00231 5e-3 0.00347 0.0075l0.00696 0.015c0.00116 0.0025 0.00232 5e-3 0.00348 0.0076l0.02088 0.045c0.00115 0.0025 0.00231 5e-3 0.00347 0.0075l0.02088 0.045c0.00116 0.0025 0.00232 0.0051 0.00348 0.0076l0.00696 0.015c0.00115 0.0025 0.00231 5e-3 0.00347 0.0075l0.03132 0.0675c0.00115 0.0025 0.00231 5e-3 0.00347 0.0075 0.00116 0.0026 0.00232 0.0051 0.00348 0.0076l0.02784 0.06c0.00115 0.0025 0.00231 5e-3 0.00347 0.0075l0.01044 0.0225c0.00116 0.0025 0.00232 5e-3 0.00348 0.0076l0.0174 0.0375c0.00115 0.0025 0.00231 5e-3 0.00347 0.0075l0.02436 0.0525c0.00116 0.0025 0.00232 0.0051 0.00348 0.0076l0.00348 0.0075c0.00115 0.0025 0.00231 5e-3 0.00347 0.0075l0.03132 0.0675c0.00116 0.0025 0.00231 5e-3 0.00347 0.0075l0.00348 0.0075c0.00116 0.0026 0.00232 0.0051 0.00348 0.0076l0.02436 0.0525c0.00116 0.0025 0.00231 5e-3 0.00347 0.0075l0.01392 0.03c0.00116 0.0025 0.00232 5e-3 0.00348 0.0076l0.01392 0.03c0.00116 0.0025 0.00231 5e-3 0.00347 0.0075l0.02784 0.06c0.00116 0.0025 0.00232 0.0051 0.00348 0.0076s0.00231 5e-3 0.00347 0.0075l0.03132 0.0675c0.00116 0.0025 0.00231 5e-3 0.00347 0.0075l0.00696 0.015c0.00116 0.0026 0.00232 0.0051 0.00348 0.0076l0.02088 0.045c0.00116 0.0025 0.00231 5e-3 0.00347 0.0075l0.0174 0.0375c0.00116 0.0025 0.00232 5e-3 0.00348 0.0076l0.01044 0.0225c0.00116 0.0025 0.00231 5e-3 0.00347 0.0075l0.03132 0.0675c0.00116 0.0025 0.00231 0.0051 0.00347 0.0076l0.03132 0.0675c0.00116 0.0025 0.00231 5e-3 0.00347 0.0075l0.01044 0.0225c0.00116 0.0026 0.00232 0.0051 0.00348 0.0076l0.0174 0.0375c0.00116 0.0025 0.00232 5e-3 0.00347 0.0075l0.02088 0.045c0.00116 0.0025 0.00232 5e-3 0.00348 0.0076l0.00696 0.015c0.00116 0.0025 0.00232 5e-3 0.00347 0.0075l0.03132 0.0675c0.00116 0.0025 0.00232 5e-3 0.00347 0.0075 0.00116 0.0025 0.00232 0.0051 0.00348 0.0076l0.02784 0.06c0.00116 0.0025 0.00232 5e-3 0.00347 0.0075l0.01392 0.03c0.00116 0.0026 0.00232 0.0051 0.00348 0.0076l0.01392 0.03c0.00116 0.0025 0.00232 5e-3 0.00347 0.0075l0.02436 0.0525c0.00116 0.0025 0.00232 5e-3 0.00348 0.0076l0.00348 0.0075c0.00116 0.0025 0.00232 5e-3 0.00347 0.0075l0.03132 0.0675c0.00116 0.0025 0.00232 5e-3 0.00347 0.0075l0.00348 0.0075c0.00116 0.0025 0.00232 0.0051 0.00348 0.0076l0.00696 0.015 1.4517-0.6728c-0.0012-0.0025-0.0024-5e-3 -0.0035-0.0075-0.0012-0.0025-0.0023-5e-3 -0.0035-0.0075s-0.0023-5e-3 -0.0035-0.0075c-0.0011-0.0025-0.0023-5e-3 -0.0035-0.0075-0.0011-0.0025-0.0023-5e-3 -0.0034-0.0075-0.0012-0.0025-0.0024-5e-3 -0.0035-0.0075-0.0012-0.0025-0.0023-5e-3 -0.0035-0.0075s-0.0023-5e-3 -0.0035-0.0075c-0.0011-0.0025-0.0023-5e-3 -0.0035-0.0075-0.0011-0.0025-0.0023-5e-3 -0.0034-0.0075-0.0012-0.0025-0.0024-5e-3 -0.0035-0.0075-0.0012-0.0026-0.0023-0.0051-0.0035-0.0076-0.0011-0.0025-0.0023-5e-3 -0.0035-0.0075-0.0011-0.0025-0.0023-5e-3 -0.0034-0.0075-0.0012-0.0025-0.0024-5e-3 -0.0035-0.0075-0.0012-0.0025-0.0023-5e-3 -0.0035-0.0075s-0.0023-5e-3 -0.0035-0.0075c-0.0011-0.0025-0.0023-5e-3 -0.0035-0.0075-0.0011-0.0025-0.0023-5e-3 -0.0034-0.0075-0.0012-0.0025-0.0024-5e-3 -0.0035-0.0075-0.0012-0.0025-0.0023-5e-3 -0.0035-0.0075s-0.0023-5e-3 -0.0035-0.0075c-0.0011-0.0025-0.0023-5e-3 -0.0035-0.0075-0.0011-0.0025-0.0023-5e-3 -0.0034-0.0075-0.0012-0.0025-0.0024-5e-3 -0.0035-0.0076-0.0012-0.0025-0.0023-5e-3 -0.0035-0.0075s-0.0023-5e-3 -0.0035-0.0075c-0.0011-0.0025-0.0023-5e-3 -0.0035-0.0075-0.0011-0.0025-0.0023-5e-3 -0.0034-0.0075-0.0012-0.0025-0.0024-5e-3 -0.0035-0.0075-0.0012-0.0025-0.0023-5e-3 -0.0035-0.0075s-0.0023-5e-3 -0.0035-0.0075c-0.0011-0.0025-0.0023-5e-3 -0.0034-0.0075-0.0012-0.0025-0.0024-5e-3 -0.0035-0.0075-0.0012-0.0025-0.0023-5e-3 -0.0035-0.0075s-0.0023-5e-3 -0.0035-0.0075c-0.0011-0.0025-0.0023-5e-3 -0.0035-0.0075-0.0011-0.0025-0.0023-5e-3 -0.0034-0.0075-0.0012-0.0025-0.0024-0.0051-0.0035-0.0076-0.0012-0.0025-0.0023-5e-3 -0.0035-0.0075s-0.0023-5e-3 -0.0035-0.0075c-0.0011-0.0025-0.0023-5e-3 -0.0035-0.0075-0.0011-0.0025-0.0023-5e-3 -0.0034-0.0075-0.0012-0.0025-0.0024-5e-3 -0.0035-0.0075-0.0012-0.0025-0.0023-5e-3 -0.0035-0.0075s-0.0023-5e-3 -0.0035-0.0075c-0.0011-0.0025-0.0023-5e-3 -0.0035-0.0075-0.0011-0.0025-0.0023-5e-3 -0.0034-0.0075-0.0012-0.0025-0.0024-5e-3 -0.0035-0.0075-0.0012-0.0025-0.0023-5e-3 -0.0035-0.0075s-0.0023-5e-3 -0.0035-0.0075c-0.0011-0.0025-0.0023-5e-3 -0.0035-0.0075-0.0011-0.0026-0.0023-0.0051-0.0034-0.0076-0.0012-0.0025-0.0023-5e-3 -0.0035-0.0075s-0.0023-5e-3 -0.0035-0.0075c-0.0011-0.0025-0.0023-5e-3 -0.0035-0.0075-0.0011-0.0025-0.0023-5e-3 -0.0034-0.0075-0.0012-0.0025-0.0024-5e-3 -0.0035-0.0075-0.0012-0.0025-0.0023-5e-3 -0.0035-0.0075s-0.0023-5e-3 -0.0035-0.0075c-0.0011-0.0025-0.0023-5e-3 -0.0035-0.0075-0.0011-0.0025-0.0023-5e-3 -0.0034-0.0075-0.0012-0.0025-0.0024-5e-3 -0.0035-0.0075-0.0012-0.0025-0.0023-5e-3 -0.0035-0.0075s-0.0023-5e-3 -0.0035-0.0075c-0.0011-0.0025-0.0023-5e-3 -0.0035-0.0076-0.0011-0.0025-0.0023-5e-3 -0.0034-0.0075-0.0012-0.0025-0.0024-5e-3 -0.0035-0.0075-0.0012-0.0025-0.0023-5e-3 -0.0035-0.0075s-0.0023-5e-3 -0.0035-0.0075c-0.0011-0.0025-0.0023-5e-3 -0.0035-0.0075-0.0011-0.0025-0.0023-5e-3 -0.0034-0.0075-0.0012-0.0025-0.0023-5e-3 -0.0035-0.0075s-0.0023-5e-3 -0.0035-0.0075c-0.0011-0.0025-0.0023-5e-3 -0.0035-0.0075-0.0011-0.0025-0.0023-5e-3 -0.0034-0.0075-0.0012-0.0025-0.0024-5e-3 -0.0035-0.0075-0.0012-0.0025-0.0023-5e-3 -0.0035-0.0075s-0.0023-5e-3 -0.0035-0.0075c-0.0011-0.0025-0.0023-0.0051-0.0035-0.0076-0.0011-0.0025-0.0023-5e-3 -0.0034-0.0075-0.0012-0.0025-0.0024-5e-3 -0.0035-0.0075-0.0012-0.0025-0.0023-5e-3 -0.0035-0.0075s-0.0023-5e-3 -0.0035-0.0075c-0.0011-0.0025-0.0023-5e-3 -0.0035-0.0075-0.0011-0.0025-0.0023-5e-3 -0.0034-0.0075-0.0012-0.0025-0.0024-5e-3 -0.0035-0.0075-0.0012-0.0025-0.0023-5e-3 -0.0035-0.0075s-0.0023-5e-3 -0.0035-0.0075c-0.0011-0.0025-0.0023-5e-3 -0.0035-0.0075-0.0011-0.0025-0.0023-5e-3 -0.0034-0.0075-0.0012-0.0025-0.0024-5e-3 -0.0035-0.0075-0.0012-0.0025-0.0023-5e-3 -0.0035-0.0075-0.0011-0.0026-0.0023-0.0051-0.0035-0.0076-0.0011-0.0025-0.0023-5e-3 -0.0034-0.0075-0.0012-0.0025-0.0024-5e-3 -0.0035-0.0075-0.0012-0.0025-0.0023-5e-3 -0.0035-0.0075s-0.0023-5e-3 -0.0035-0.0075c-0.0011-0.0025-0.0023-5e-3 -0.0035-0.0075-0.0011-0.0025-0.0023-5e-3 -0.0034-0.0075-0.0012-0.0025-0.0024-5e-3 -0.0035-0.0075-0.0012-0.0025-0.0023-5e-3 -0.0035-0.0075s-0.0023-5e-3 -0.0035-0.0075c-0.0011-0.0025-0.0023-5e-3 -0.0035-0.0075-0.0011-0.0025-0.0023-5e-3 -0.0034-0.0075-0.0012-0.0025-0.0024-5e-3 -0.0035-0.0075-0.0012-0.0025-0.0023-0.0051-0.0035-0.0076s-0.0023-5e-3 -0.0035-0.0075c-0.0011-0.0025-0.0023-5e-3 -0.0035-0.0075-0.0011-0.0025-0.0023-5e-3 -0.0034-0.0075-0.0012-0.0025-0.0024-5e-3 -0.0035-0.0075-0.0012-0.0025-0.0023-5e-3 -0.0035-0.0075s-0.0023-5e-3 -0.0035-0.0075c-0.0011-0.0025-0.0023-5e-3 -0.0034-0.0075-0.0012-0.0025-0.0024-5e-3 -0.0035-0.0075-0.0012-0.0025-0.0023-5e-3 -0.0035-0.0075s-0.0023-5e-3 -0.0035-0.0075c-0.0011-0.0025-0.0023-5e-3 -0.0035-0.0075-0.0011-0.0025-0.0023-5e-3 -0.0034-0.0075-0.0012-0.0025-0.0024-5e-3 -0.0035-0.0075-0.0012-0.0026-0.0023-0.0051-0.0035-0.0076s-0.0023-5e-3 -0.0035-0.0075c-0.0011-0.0025-0.0023-5e-3 -0.0035-0.0075-0.0011-0.0025-0.0023-5e-3 -0.0034-0.0075-0.0012-0.0025-0.0024-5e-3 -0.0035-0.0075-0.0012-0.0025-0.0023-5e-3 -0.0035-0.0075s-0.0023-5e-3 -0.0035-0.0075c-0.0011-0.0025-0.0023-5e-3 -0.0035-0.0075-0.0011-0.0025-0.0023-5e-3 -0.0034-0.0075-0.0012-0.0025-0.0024-5e-3 -0.0035-0.0075-0.0012-0.0025-0.0023-5e-3 -0.0035-0.0075s-0.0023-5e-3 -0.0035-0.0075c-0.0011-0.0025-0.0023-5e-3 -0.0034-0.0075-0.0012-0.0025-0.0024-5e-3 -0.0035-0.0076-0.0012-0.0025-0.0023-5e-3 -0.0035-0.0075s-0.0023-5e-3 -0.0035-0.0075c-0.0011-0.0025-0.0023-5e-3 -0.0035-0.0075-0.0011-0.0025-0.0023-5e-3 -0.0034-0.0075-0.0012-0.0025-0.0024-5e-3 -0.0035-0.0075-0.0012-0.0025-0.0023-5e-3 -0.0035-0.0075s-0.0023-5e-3 -0.0035-0.0075c-0.0011-0.0025-0.0023-5e-3 -0.0035-0.0075-0.0011-0.0025-0.0023-5e-3 -0.0034-0.0075-0.0012-0.0025-0.0024-5e-3 -0.0035-0.0075-0.0012-0.0025-0.0023-5e-3 -0.0035-0.0075s-0.0023-5e-3 -0.0035-0.0075c-0.0011-0.0025-0.0023-5e-3 -0.0035-0.0075-0.0011-0.0025-0.0023-0.0051-0.0034-0.0076-0.0012-0.0025-0.0024-5e-3 -0.0035-0.0075-0.0012-0.0025-0.0023-5e-3 -0.0035-0.0075s-0.0023-5e-3 -0.0035-0.0075c-0.0011-0.0025-0.0023-5e-3 -0.0035-0.0075-0.0011-0.0025-0.0023-5e-3 -0.0034-0.0075-0.0012-0.0025-0.0023-5e-3 -0.0035-0.0075s-0.0023-5e-3 -0.0035-0.0075c-0.0011-0.0025-0.0023-5e-3 -0.0035-0.0075-0.0011-0.0025-0.0023-5e-3 -0.0034-0.0075-0.0012-0.0025-0.0024-5e-3 -0.0035-0.0075-0.0012-0.0025-0.0023-5e-3 -0.0035-0.0075s-0.0023-5e-3 -0.0035-0.0075c-0.0011-0.0025-0.0023-5e-3 -0.0035-0.0075-0.0011-0.0026-0.0023-0.0051-0.0034-0.0076-0.0012-0.0025-0.0024-5e-3 -0.0035-0.0075-0.0012-0.0025-0.0023-5e-3 -0.0035-0.0075s-0.0023-5e-3 -0.0035-0.0075c-0.0011-0.0025-0.0023-5e-3 -0.0035-0.0075-0.0011-0.0025-0.0023-5e-3 -0.0034-0.0075-0.0012-0.0025-0.0024-5e-3 -0.0035-0.0075-0.0012-0.0025-0.0023-5e-3 -0.0035-0.0075s-0.0023-5e-3 -0.0035-0.0075c-0.0011-0.0025-0.0023-5e-3 -0.0035-0.0075-0.0011-0.0025-0.0023-5e-3 -0.0034-0.0075-0.0012-0.0025-0.0024-5e-3 -0.0035-0.0075-0.0012-0.0025-0.0023-5e-3 -0.0035-0.0075-0.0011-0.0025-0.0023-5e-3 -0.0035-0.0076-0.0011-0.0025-0.0023-5e-3 -0.0034-0.0075-0.0012-0.0025-0.0024-5e-3 -0.0035-0.0075-0.0012-0.0025-0.0023-5e-3 -0.0035-0.0075s-0.0023-5e-3 -0.0035-0.0075c-0.0011-0.0025-0.0023-5e-3 -0.0035-0.0075-0.0011-0.0025-0.0023-5e-3 -0.0034-0.0075-0.0012-0.0025-0.0024-5e-3 -0.0035-0.0075-0.0012-0.0025-0.0023-5e-3 -0.0035-0.0075s-0.0023-5e-3 -0.0035-0.0075c-0.0011-0.0025-0.0023-5e-3 -0.0035-0.0075-0.0011-0.0025-0.0023-5e-3 -0.0034-0.0075-0.0012-0.0025-0.0024-5e-3 -0.0035-0.0075-0.0012-0.0025-0.0023-5e-3 -0.0035-0.0075s-0.0023-0.0051-0.0035-0.0076c-0.0011-0.0025-0.0023-5e-3 -0.0035-0.0075-0.0011-0.0025-0.0023-5e-3 -0.0034-0.0075-0.0012-0.0025-0.0024-5e-3 -0.0035-0.0075-0.0012-0.0025-0.0023-5e-3 -0.0035-0.0075-0.0011-0.0025-0.0023-5e-3 -0.0035-0.0075-0.0011-0.0025-0.0023-5e-3 -0.0034-0.0075-0.0012-0.0025-0.0024-5e-3 -0.0035-0.0075-0.0012-0.0025-0.0023-5e-3 -0.0035-0.0075s-0.0023-5e-3 -0.0035-0.0075c-0.0011-0.0025-0.0023-5e-3 -0.0035-0.0075-0.0011-0.0025-0.0023-5e-3 -0.0034-0.0075-0.0012-0.0025-0.0024-5e-3 -0.0035-0.0075-0.0012-0.0025-0.0023-5e-3 -0.0035-0.0075-0.0012-0.0026-0.0023-0.0051-0.0035-0.0076-0.0011-0.0025-0.0023-5e-3 -0.0035-0.0075-0.0011-0.0025-0.0023-5e-3 -0.0034-0.0075-0.0012-0.0025-0.0024-5e-3 -0.0035-0.0075-0.0012-0.0025-0.0023-5e-3 -0.0035-0.0075s-0.0023-5e-3 -0.0035-0.0075c-0.0011-0.0025-0.0023-5e-3 -0.0035-0.0075-0.0011-0.0025-0.0023-5e-3 -0.0034-0.0075-0.0012-0.0025-0.0024-5e-3 -0.0035-0.0075-0.0012-0.0025-0.0023-5e-3 -0.0035-0.0075s-0.0023-5e-3 -0.0035-0.0075c-0.0011-0.0025-0.0023-5e-3 -0.0034-0.0075-0.0012-0.0025-0.0024-5e-3 -0.0035-0.0075-0.0012-0.0025-0.0023-5e-3 -0.0035-0.0076-0.0012-0.0025-0.0023-5e-3 -0.0035-0.0075-0.0011-0.0025-0.0023-5e-3 -0.0035-0.0075-0.0011-0.0025-0.0023-5e-3 -0.0034-0.0075-0.0012-0.0025-0.0024-5e-3 -0.0035-0.0075-0.0012-0.0025-0.0023-5e-3 -0.0035-0.0075s-0.0023-5e-3 -0.0035-0.0075c-0.0011-0.0025-0.0023-5e-3 -0.0035-0.0075-0.0011-0.0025-0.0023-5e-3 -0.0034-0.0075-0.0012-0.0025-0.0024-5e-3 -0.0035-0.0075-0.0012-0.0025-0.0023-5e-3 -0.0035-0.0075s-0.0023-5e-3 -0.0035-0.0075c-0.0011-0.0025-0.0023-5e-3 -0.0035-0.0075-0.0011-0.0025-0.0023-5e-3 -0.0034-0.0075-0.0012-0.0025-0.0024-0.0051-0.0035-0.0076-0.0012-0.0025-0.0023-5e-3 -0.0035-0.0075s-0.0023-5e-3 -0.0035-0.0075c-0.0011-0.0025-0.0023-5e-3 -0.0034-0.0075-0.0012-0.0025-0.0024-5e-3 -0.0035-0.0075-0.0012-0.0025-0.0023-5e-3 -0.0035-0.0075s-0.0023-5e-3 -0.0035-0.0075c-0.0011-0.0025-0.0023-5e-3 -0.0035-0.0075-0.0011-0.0025-0.0023-5e-3 -0.0034-0.0075-0.0012-0.0025-0.0024-5e-3 -0.0035-0.0075-0.0012-0.0025-0.0023-5e-3 -0.0035-0.0075s-0.0023-5e-3 -0.0035-0.0075c-0.0011-0.0025-0.0023-5e-3 -0.0035-0.0075-0.0011-0.0025-0.0023-5e-3 -0.0034-0.0075-0.0012-0.0026-0.0024-0.0051-0.0035-0.0076-0.0012-0.0025-0.0023-5e-3 -0.0035-0.0075s-0.0023-5e-3 -0.0035-0.0075c-0.0011-0.0025-0.0023-5e-3 -0.0035-0.0075-0.0011-0.0025-0.0023-5e-3 -0.0034-0.0075-0.0012-0.0025-0.0024-5e-3 -0.0035-0.0075-0.0012-0.0025-0.0023-5e-3 -0.0035-0.0075s-0.0023-5e-3 -0.0035-0.0075c-0.0011-0.0025-0.0023-5e-3 -0.0035-0.0075-0.0011-0.0025-0.0023-5e-3 -0.0034-0.0075-0.0012-0.0025-0.0023-5e-3 -0.0035-0.0075s-0.0023-5e-3 -0.0035-0.0075c-0.0011-0.0025-0.0023-5e-3 -0.0035-0.0075-0.0011-0.0025-0.0023-5e-3 -0.0034-0.0076-0.0012-0.0025-0.0024-5e-3 -0.0035-0.0075-0.0012-0.0025-0.0023-5e-3 -0.0035-0.0075s-0.0023-5e-3 -0.0035-0.0075c-0.0011-0.0025-0.0023-5e-3 -0.0035-0.0075-0.0011-0.0025-0.0023-5e-3 -0.0034-0.0075-0.0012-0.0025-0.0024-5e-3 -0.0035-0.0075-0.0012-0.0025-0.0023-5e-3 -0.0035-0.0075s-0.0023-5e-3 -0.0035-0.0075c-0.0011-0.0025-0.0023-5e-3 -0.0035-0.0075-0.0011-0.0025-0.0023-5e-3 -0.0034-0.0075-0.0012-0.0025-0.0024-5e-3 -0.0035-0.0075-0.0012-0.0025-0.0023-5e-3 -0.0035-0.0075s-0.0023-5e-3 -0.0035-0.0075c-0.0011-0.0025-0.0023-0.0051-0.0035-0.0076-0.0011-0.0025-0.0023-5e-3 -0.0034-0.0075-0.0012-0.0025-0.0024-5e-3 -0.0035-0.0075-0.0012-0.0025-0.0023-5e-3 -0.0035-0.0075-0.0011-0.0025-0.0023-5e-3 -0.0035-0.0075-0.0011-0.0025-0.0023-5e-3 -0.0034-0.0075-0.0012-0.0025-0.0024-5e-3 -0.0035-0.0075-0.0012-0.0025-0.0023-5e-3 -0.0035-0.0075s-0.0023-5e-3 -0.0035-0.0075c-0.0011-0.0025-0.0023-5e-3 -0.0035-0.0075-0.0011-0.0025-0.0023-5e-3 -0.0034-0.0075-0.0012-0.0025-0.0024-5e-3 -0.0035-0.0075-0.0012-0.0025-0.0023-5e-3 -0.0035-0.0075s-0.0023-5e-3 -0.0035-0.0075c-0.0011-0.0026-0.0023-0.0051-0.0035-0.0076-0.0011-0.0025-0.0023-5e-3 -0.0034-0.0075-0.0012-0.0025-0.0024-5e-3 -0.0035-0.0075-0.0012-0.0025-0.0023-5e-3 -0.0035-0.0075s-0.0023-5e-3 -0.0035-0.0075c-0.0011-0.0025-0.0023-5e-3 -0.0035-0.0075-0.0011-0.0025-0.0023-5e-3 -0.0034-0.0075-0.0012-0.0025-0.0024-5e-3 -0.0035-0.0075-0.0012-0.0025-0.0023-5e-3 -0.0035-0.0075-0.0011-0.0025-0.0023-5e-3 -0.0035-0.0075-0.0011-0.0025-0.0023-5e-3 -0.0034-0.0075-0.0012-0.0025-0.0024-5e-3 -0.0035-0.0075-0.0012-0.0025-0.0023-5e-3 -0.0035-0.0075s-0.0023-5e-3 -0.0035-0.0076c-0.0011-0.0025-0.0023-5e-3 -0.0035-0.0075-0.0011-0.0025-0.0023-5e-3 -0.0034-0.0075-0.0012-0.0025-0.0024-5e-3 -0.0035-0.0075-0.0012-0.0025-0.0023-5e-3 -0.0035-0.0075s-0.0023-5e-3 -0.0035-0.0075c-0.0011-0.0025-0.0023-5e-3 -0.0035-0.0075-0.0011-0.0025-0.0023-5e-3 -0.0034-0.0075-0.0012-0.0025-0.0024-5e-3 -0.0035-0.0075-0.0012-0.0025-0.0023-5e-3 -0.0035-0.0075s-0.0023-5e-3 -0.0035-0.0075c-0.0011-0.0025-0.0023-5e-3 -0.0035-0.0075-0.0011-0.0025-0.0023-5e-3 -0.0034-0.0075-0.0012-0.0025-0.0024-5e-3 -0.0035-0.0075-0.0012-0.0025-0.0023-0.0051-0.0035-0.0076s-0.0023-5e-3 -0.0035-0.0075c-0.0011-0.0025-0.0023-5e-3 -0.0034-0.0075-0.0012-0.0025-0.0024-5e-3 -0.0035-0.0075-0.0012-0.0025-0.0023-5e-3 -0.0035-0.0075s-0.0023-5e-3 -0.0035-0.0075c-0.0011-0.0025-0.0023-5e-3 -0.0035-0.0075-0.0011-0.0025-0.0023-5e-3 -0.0034-0.0075-0.0012-0.0025-0.0024-5e-3 -0.0035-0.0075-0.0012-0.0025-0.0023-5e-3 -0.0035-0.0075s-0.0023-5e-3 -0.0035-0.0075c-0.00114-0.0025-0.0023-5e-3 -0.00346-0.0075l-0.00696-0.015c-0.00116-0.0026-0.00232-0.0051-0.00348-0.0076l-0.00696-0.015c-0.00116-0.0025-0.00231-5e-3 -0.00347-0.0075l-0.03132-0.0675c-0.00116-0.0025-0.00231-5e-3 -0.00347-0.0076l-0.03132-0.0675c-0.00116-0.0025-0.00231-5e-3 -0.00347-0.0075l-0.01044-0.0225c-0.00116-0.0025-0.00232-0.0051-0.00348-0.0076l-0.0174-0.0375c-0.00116-0.0025-0.00231-5e-3 -0.00347-0.0075l-0.02436-0.0525c-0.00116-0.0026-0.00232-0.0051-0.00348-0.0076l-0.00348-0.0075c-0.00116-0.0025-0.00231-5e-3 -0.00347-0.0075l-0.03132-0.0675c-0.00116-0.0025-0.00231-5e-3 -0.00347-0.0075s-0.00232-5e-3 -0.00348-0.0076l-0.02784-0.06c-0.00116-0.0025-0.00231-5e-3 -0.00347-0.0075l-0.01392-0.03c-0.00116-0.0025-0.00232-0.0051-0.00348-0.0076l-0.01392-0.03c-0.00116-0.0025-0.00231-5e-3 -0.00347-0.0075l-0.02784-0.06c-0.00116-0.0026-0.00232-0.0051-0.00348-0.0076s-0.00231-5e-3 -0.00347-0.0075l-0.03132-0.0675c-0.00116-0.0025-0.00232-5e-3 -0.00347-0.0075l-0.00348-0.0075c-0.00116-0.0025-0.00232-5e-3 -0.00348-0.0076l-0.02436-0.0525c-0.00116-0.0025-0.00232-5e-3 -0.00347-0.0075l-0.0174-0.0375c-0.00116-0.0025-0.00232-0.0051-0.00348-0.0076l-0.01044-0.0225c-0.00116-0.0025-0.00232-5e-3 -0.00347-0.0075l-0.02784-0.06c-0.00116-0.0025-0.00232-5e-3 -0.00348-0.0076-0.00116-0.0025-0.00232-5e-3 -0.00347-0.0075l-0.03132-0.0675c-0.00116-0.0025-0.00232-5e-3 -0.00347-0.0075l-0.00696-0.015c-0.00116-0.0025-0.00232-0.0051-0.00348-0.0076l-0.02088-0.045c-0.00116-0.0025-0.00232-5e-3 -0.00347-0.0075l-0.02088-0.045c-0.00116-0.0026-0.00232-0.0051-0.00348-0.0076l-0.00696-0.015c-0.00116-0.0025-0.00232-5e-3 -0.00347-0.0075l-0.03132-0.0675c-0.00116-0.0025-0.00232-5e-3 -0.00347-0.0076l-0.0348-0.075c-0.00115-0.0025-0.00231-5e-3 -0.00347-0.0075l-0.00696-0.015c-0.00116-0.0025-0.00232-0.0051-0.00348-0.0076l-0.02088-0.045c-0.00115-0.0025-0.00231-5e-3 -0.00347-0.0075l-0.00696-0.015-1.4517 0.6727zm1.7845 3.8506c0.59571 1.2541 1.1606 2.4153 1.6946 3.4833l1.4311-0.7155c-0.5285-1.057-1.0887-2.2083-1.6805-3.4542l-1.4452 0.6864zm1.6889 3.4717c0.5644 1.176 1.0274 2.1023 1.3871 2.7738 0.1796 0.3353 0.3377 0.6148 0.4728 0.8336 0.1237 0.2003 0.2624 0.407 0.405 0.5496l1.1314-1.1313c2e-3 2e-3 -0.0527-0.0609-0.1751-0.259-0.111-0.1797-0.2517-0.4274-0.4237-0.7484-0.3434-0.641-0.7945-1.5428-1.3551-2.7106l-1.4424 0.6923zm3.5719 3.892c3.632-8.9547 5.8506-14.211 6.6746-15.828l-1.4256-0.7263c-0.8635 1.6949-3.1137 7.0328-6.7317 15.953l1.4827 0.6013zm6.6774-15.834c0.8487-1.6974 1.3665-2.701 1.5692-3.0484l-1.3821-0.80622c-0.2348 0.40262-0.7794 1.4615-1.6182 3.1391l1.4311 0.7155zm1.5498-3.0169c0.159-0.2458 0.276-0.3915 0.3511-0.4666 0.037-0.037 0.0448-0.0375 0.0234-0.0249-0.0193 0.0113-0.1081 0.06-0.2493 0.06v-1.6c-0.4378 0-0.7532 0.28121-0.9055 0.43353-0.1905 0.19053-0.3783 0.44323-0.563 0.72874l1.3433 0.86923zm0.1252-0.4315c0.0534 0 0.265 0.0417 0.6693 0.3777 0.3843 0.3194 0.8507 0.8279 1.3994 1.5544 1.0947 1.4496 2.4347 3.6559 4.0217 6.6432l1.413-0.7506c-1.6005-3.0127-2.987-5.3064-4.1579-6.8568-0.5842-0.7735-1.1354-1.39-1.6534-1.8206-0.4981-0.41395-1.0735-0.74727-1.6921-0.74727v1.6zm6.0956 8.585c0.8716 1.5875 1.6803 3.1116 2.4263 4.5726l1.425-0.7277c-0.754-1.4765-1.5703-3.0149-2.4487-4.6149l-1.4026 0.77zm2.4283 4.5765c0.9233 1.7839 1.6732 3.1976 2.2487 4.2382 0.563 1.018 0.9878 1.7328 1.2522 2.0727l1.263-0.9823c-0.1731-0.2226-0.5374-0.8203-1.115-1.8648-0.5652-1.0219-1.3074-2.4207-2.2279-4.1993l-1.421 0.7355zm41.604 12.945 0.707 0.3743 0.1265-0.2391-0.0444-0.2668-0.7891 0.1316zm-4.1719-8.0626-0.7966 0.074 8e-4 0.0082 9e-4 0.0082 0.7949-0.0904zm-1.7813-4.875 0.1877-0.7776-0.0174-0.0042-0.0176-0.0034-0.1527 0.7852zm-9.0468 0.6563 0.5451 0.5855 7e-4 -7e-4 -0.5458-0.5848zm-2.1094 4.2656-0.7762-0.194-0.0021 0.0087 0.7783 0.1853zm-1.0313 8.3438v0.8h0.7528l0.0458-0.7514-0.7986-0.0486zm-3.6093 0-0.7995-0.0281-0.0291 0.8281h0.8286v-0.8zm0-10.406-0.7997 0.0235v4e-4l0.7997-0.0239zm-0.2344-6.9375 0.7995-0.03-7e-4 -0.0134-0.7988 0.0434zm0.1406-12.75-0.7079-0.37259-0.063 0.11958-0.0201 0.13361 0.791 0.1194zm3.0469-0.09374-0.6355 0.48596 0.0072 0.00936 0.0074 0.00915 0.6209-0.50447zm0.6562 1.3594 0.7997 0.02423 0.0013-0.04285-0.0033-0.04274-0.7977 0.06136zm-0.2343 7.7344-0.7997-0.0242-3e-4 0.0121v0.0121h0.8zm0.4218 6.5157-0.7851 0.1536 0.2304 1.1776 0.9985-0.6656-0.4438-0.6656zm11.812-2.5782 0.3691-0.7097-0.121-0.063-0.1349-0.0192-0.1132 0.7919zm4.5938 3.8906 0.7217-0.3451-0.0061-0.0128-0.0066-0.0127-0.709 0.3706zm0.8437 5.0626-0.7996 0.0242 3e-4 0.0089 4e-4 0.0089 0.7989-0.042zm-0.0039 7.5006c-0.0225 0.0426-0.089 0.1337-0.3268 0.2197-0.2469 0.0893-0.6251 0.1515-1.1693 0.1515v1.6c0.6433 0 1.2261-0.0706 1.7135-0.2469 0.4967-0.1796 0.938-0.487 1.1967-0.9756l-1.4141-0.7487zm-1.4961 0.3712c-0.5045 0-0.7382-0.0963-0.8292-0.1626-0.044-0.0321-0.1051-0.0847-0.1051-0.303h-1.6c0 0.6254 0.2279 1.2057 0.762 1.5955 0.4872 0.3555 1.1206 0.4701 1.7723 0.4701v-1.6zm-0.9343-0.4656c0-3.684-0.0775-6.258-0.2395-7.6841l-1.5898 0.1807c0.1504 1.3239 0.2293 3.8124 0.2293 7.5034h1.6zm-0.2378-7.6677c-0.143-1.5407-0.3696-2.7846-0.7015-3.6928-0.3131-0.857-0.8166-1.6754-1.6887-1.8859l-0.3754 1.5553c0.0342 0.0083 0.2807 0.1117 0.5613 0.8797 0.2619 0.7168 0.4728 1.801 0.6111 3.2916l1.5932-0.1479zm-2.4252-5.5863c-2.2744-0.4423-4.1742-0.671-5.6839-0.671v1.6c1.3653 0 3.153 0.2088 5.3785 0.6415l0.3054-1.5705zm-5.6839-0.671c-1.5876 0-2.961 0.5005-4.0615 1.5277l1.0917 1.1696c0.7745-0.7228 1.7449-1.0973 2.9698-1.0973v-1.6zm-4.0608 1.527c-1.072 0.9981-1.8252 2.5965-2.3403 4.6571l1.5522 0.3881c0.4848-1.9395 1.1379-3.1848 1.8784-3.8742l-1.0903-1.171zm-2.3425 4.6658c-0.4846 2.0354-0.8317 4.8703-1.0515 8.4805l1.5971 0.0972c0.2177-3.5773 0.558-6.305 1.0109-8.2071l-1.5565-0.3706zm-0.253 7.7291h-3.6093v1.6h3.6093v-1.6zm-2.8098 0.828c0.0627-1.7891 0.0942-3.4548 0.0942-4.9968h-1.6c0 1.5206-0.031 3.1673-0.0932 4.9407l1.599 0.0561zm0.0942-4.9968c0-1.5415-0.0314-3.3623-0.0941-5.4613l-1.5993 0.0477c0.0624 2.0885 0.0934 3.8926 0.0934 5.4136h1.6zm-0.0941-5.461c-0.0626-2.1275-0.1408-4.4422-0.2346-6.944l-1.5989 0.06c0.0937 2.4982 0.1718 4.8085 0.2342 6.931l1.5993-0.047zm-0.2352-6.9574c-0.1558-2.8665-0.2332-5.2729-0.2332-7.2222h-1.6c0 1.9882 0.0788 4.4255 0.2356 7.309l1.5976-0.0868zm-0.2332-7.2222c0-1.9674 0.123-3.755 0.366-5.365l-1.582-0.23881c-0.257 1.7025-0.384 3.5712-0.384 5.6038h1.6zm0.2829-5.1118c0.108-0.20506 0.2158-0.3131 0.3047-0.37139 0.0839-0.05493 0.1901-0.09183 0.3468-0.09183v-1.6c-0.4371 0-0.8543 0.11154-1.2236 0.35349-0.3641 0.23858-0.6392 0.57585-0.8437 0.96454l1.4158 0.74519zm0.6515-0.46322c0.4911 0 0.8097 0.16604 1.052 0.48284l1.271-0.97193c-0.5703-0.7457-1.3766-1.1109-2.323-1.1109v1.6zm1.0666 0.50135c0.3586 0.4414 0.4661 0.74163 0.4795 0.91626l1.5953-0.12272c-0.0491-0.63787-0.3792-1.2439-0.833-1.8025l-1.2418 1.009zm0.4775 0.83067-0.2344 7.7344 1.5993 0.0485 0.2344-7.7344-1.5993-0.04846zm-0.2347 7.7586c0 2.918 0.1401 5.1531 0.4367 6.6693l1.5702-0.3073c-0.2658-1.3588-0.4069-3.4674-0.4069-6.362h-1.6zm1.6656 7.1813c2.6983-1.7989 5.4524-2.6781 8.275-2.6781v-1.6001c-3.1775 0-6.2358 0.9958-9.1625 2.9469l0.8875 1.3313zm8.275-2.6781c0.9261 0 1.9192 0.0747 2.9806 0.2263l0.2263-1.5839c-1.1262-0.1609-2.1955-0.2425-3.2069-0.2425v1.6001zm2.7247 0.1441c2.2897 1.1907 3.6477 2.3919 4.2538 3.5515l1.418-0.7413c-0.8314-1.5904-2.536-2.9829-4.9337-4.2297l-0.7381 1.4195zm4.2411 3.526c0.3045 0.6368 0.4993 1.3165 0.5832 2.0434l1.5895-0.1834c-0.1037-0.8981-0.3463-1.7496-0.7293-2.5503l-1.4434 0.6903zm0.5832 2.0434c0.0906 0.7852 0.1519 1.684 0.1826 2.6982l1.5993-0.0485c-0.0318-1.0483-0.0955-1.9933-0.1924-2.8331l-1.5895 0.1834zm0.1833 2.716c0.1878 3.5676 0.4239 6.2301 0.7129 7.9645l1.5783-0.2631c-0.2735-1.6406-0.5061-4.2281-0.6934-7.7855l-1.5978 0.0841zm26.458 0.708 0.7804-0.1763-0.4237-1.8763-1.0319 1.6234 0.6752 0.4292zm-9.375 6.8437 0.1621 0.7835 0.0128-0.0028-0.1749-0.7807zm-4.3125 0.2813-0.0532 0.7982 0.0266 0.0018h0.0266v-0.8zm-3.2344-0.8438-0.3949 0.6958 0.0027 0.0015 0.3922-0.6973zm-1.7343-2.7656h0.8v-0.0878l-0.0191-0.0858-0.7809 0.1736zm1.9687-8.4375-0.6776-0.4255-7e-3 0.0115 0.6846 0.414zm3.0469-3.7031 0.5502 0.5807 0.0044-0.0042-0.5546-0.5765zm8.0156-4.5938-0.1736-0.7811-0.0125 3e-3 0.1861 0.7781zm4.2188-0.1406-0.1316 0.7891 0.0653 0.0109h0.0663v-0.8zm3.6559 3.7031-0.7752 0.1963 0.0012 5e-3 0.774-0.2013zm0.703 6.5625-0.799 0.0178v0.0092l0.799-0.027zm0.235 6.4688-0.8 0.0326 1e-3 0.0086v0.0087l0.799-0.0499zm0.609 4.125v0.8h1.025l-0.249-0.9941-0.776 0.1941zm-2.7654 0-0.7914 0.1172 0.1011 0.6828h0.6903v-0.8zm-0.4688-4.0782 0.7951-0.0883-7e-4 -0.0062-0.7944 0.0945zm-3.4219-13.406-0.1131 0.7919 0.0563 0.0081h0.0568v-0.8zm-7.875 3.2344 0.5154 0.6119 0.0077-0.0067-0.5231-0.6052zm-3.0468 3.375 0.6548 0.4595 0.0042-6e-3 4e-3 -6e-3 -0.663-0.4475zm1.3125 8.0624-0.1278 0.7898 0.0723 0.0117 0.0732-0.0016-0.0177-0.7999zm8.0625-3.8437 0.5587 0.5727 0.0069-7e-3 -0.5656-0.5657zm2.7187-3.5625-0.6916-0.4024-0.0061 0.011 0.6977 0.3914zm1.0123 2.2896c-2.2415 3.5267-5.1951 5.668-8.8747 6.4922l0.3498 1.5614c4.1329-0.9258 7.4293-3.347 9.8753-7.1953l-1.3504-0.8583zm-8.8619 6.4895c-0.8647 0.1789-1.6376 0.2646-2.3223 0.2646v1.6001c0.8154 0 1.6988-0.1018 2.6465-0.2979l-0.3242-1.5668zm-2.3223 0.2646h-0.0042-0.0042-0.0042-0.0042-0.0042-0.0042-0.0042-0.0042-0.0042-0.0042-0.0041-0.0042-0.0042-0.0042-0.0042-0.0041-0.0042-0.0042-0.0041-0.0042-0.0042-0.0041-0.0042-0.0041-0.0042-0.0041-0.0042-0.0041-0.0041-0.0042-0.0041-0.0042-0.0041-0.0041-0.0041-0.0042-0.0041-0.0041-0.0041-0.0041-0.0041-0.0041-0.0041-0.0041-0.0041-0.0041-0.0041-0.0041-0.0041-0.0041-0.0041-0.0041-0.0041-4e-3 -0.0041-0.0041-0.0041-4e-3 -0.0041-4e-3 -0.0041-0.0041-4e-3 -0.0041-4e-3 -0.0041-4e-3 -0.0041-4e-3 -4e-3 -0.0041-4e-3 -4e-3 -0.0041-4e-3 -4e-3 -4e-3 -4e-3 -0.0041-4e-3 -4e-3 -4e-3 -4e-3 -4e-3 -4e-3 -4e-3 -4e-3 -4e-3 -4e-3 -4e-3 -0.0039-4e-3 -4e-3 -4e-3 -4e-3 -0.0039-4e-3 -4e-3 -0.0039-4e-3 -4e-3 -0.0039-4e-3 -0.0039-4e-3 -0.0039-4e-3 -0.0039-0.0039-4e-3 -0.0039-0.0039-4e-3 -0.0039-0.0039-0.0039-4e-3 -0.0039-0.0039-0.0039-0.0039-0.0039-0.0039-0.0039-0.0039-0.0039-0.0039-0.0039-0.0039-0.0039-0.0039-0.0039-0.0038-0.0039-0.0039-0.0039-0.0038-0.0039-0.0039-0.0038-0.0039-0.0039-0.0038-0.0039-0.0038-0.0039-0.0038-0.0038-0.0039-0.0038-0.0039-0.0038-0.0038-0.0038-0.0039-0.0038-0.0038-0.0038-0.0038-0.0039-0.0038-0.0038-0.0038-0.0038-0.0038-0.0038-0.0038-0.0038-0.0037-0.0038-0.0038-0.0038-0.0038-0.0038-0.0037-0.0038-0.0038-0.0037-0.0038-0.0038-0.0037-0.0038-0.0037-0.0038-0.0037-0.0038-0.0037-0.0038-0.0037-0.0038-0.0037-0.0037-0.0037-0.0038-0.0037-0.0037-0.0037-0.0038-0.0037-0.0037-0.0037-0.0037-0.0037-0.0037-0.0037-0.0037-0.0037-0.0037-0.0037-0.0037-0.0037-0.0036-0.0037-0.0037-0.0037-0.0036-0.0037-0.0037-0.0036-0.0037-0.0037-0.0036-0.0037-0.0036-0.0037-0.0036-0.0037-0.0036-0.0036-0.0037-0.0036-0.0036-0.0037-0.0036-0.0036-0.0036-0.0037-0.0036-0.0036-0.0036-0.0036-0.0036-0.0036-0.0036-0.0036-0.0036-0.0036-0.0036-0.0036-0.0036-0.0036-0.0036-0.0035-0.0036-0.0036-0.0036-0.0035-0.0036-0.0036-0.0035-0.0036-0.0035-0.0036-0.0035-0.0036-0.0035-0.0036-0.0035-0.0036-0.0035-0.0035-0.0036-0.0035-0.0035-0.0035-0.0036-0.0035-0.0035-0.0035-0.0035-0.0035-0.0035-0.0036-0.0035-0.0035-0.0035-0.0034-0.0035-0.0035-0.0035-0.0035-0.0035-0.0035-0.0034-0.0035-0.0035-0.0034-0.0035-0.0035-0.0034-0.0035-0.0035-0.0034-0.0035-0.0034-0.0035-0.0034-0.0034-0.0035-0.0034-0.0035-0.0034-0.0034-0.0034-0.0035-0.0034-0.0034-0.0034-0.0034-0.0034-0.0035-0.0034-0.0034-0.0034-0.0034-0.0034-0.0034-0.0034-0.0033-0.0034-0.0034-0.0034-0.0034-0.0033-0.0034-0.0034-0.0034-0.0033-0.0034-0.0034-0.0033-0.0034-0.0033-0.0034-0.0033-0.0034-0.0033-0.0034-0.0033-0.0033-0.0034-0.0033-0.0033-0.0034-0.0033-0.0033-0.0033-0.0033-0.0033-0.0034-0.0033-0.0033-0.0033-0.0033-0.0033-0.0033-0.0033-0.0033-0.0033-0.0032-0.0033-0.0033-0.0033-0.0033-0.0032-0.0033-0.0033-0.0032-0.0033-0.0033-0.0032-0.0033-0.0032-0.0033-0.0032-0.0033-0.0032-0.0033-0.0032-0.0032-0.0033-0.0032-0.0032-0.0033-0.0032-0.0032-0.0032-0.0032-0.0033-0.0032-0.0032-0.0032-0.0032-0.0032-0.0032-0.0032-0.0032-0.0032-0.0032-0.0031-0.0032-0.0032-0.0032-0.0032-0.0031-0.0032-0.0032-0.0031-0.0032-0.0032-0.0031-0.0032-0.0031-0.0032-0.0031-0.0032-0.0031-0.0032-0.0031-0.0031-0.0032-0.0031-0.0031-0.0032-0.0031-0.0031-0.0031-0.0031-0.0032-0.0031-0.0031-0.0031-0.0031-0.0031-0.0031-0.0031-0.0031-0.0031-0.0031-3e-3 -0.0031-0.0031-0.0031-0.0031-3e-3 -0.0031-0.0031-3e-3 -0.0031-0.0031-3e-3 -0.0031-3e-3 -0.0031-3e-3 -0.0031-3e-3 -0.0031-3e-3 -3e-3 -0.0031-3e-3 -3e-3 -0.0031-3e-3 -3e-3 -3e-3 -3e-3 -3e-3 -0.0031-3e-3 -3e-3 -3e-3 -3e-3 -3e-3 -3e-3 -3e-3 -3e-3 -0.0029-3e-3 -3e-3 -3e-3 -3e-3 -3e-3 -0.0029-3e-3 -3e-3 -0.0029-3e-3 -3e-3 -0.0029-3e-3 -0.0029-3e-3 -0.0029-3e-3 -0.0029-3e-3 -0.0029-0.0029-3e-3 -0.0029v1.6001h0.0029 3e-3 0.0029 0.0029 3e-3 0.0029 3e-3 0.0029 3e-3 0.0029 3e-3 0.0029 3e-3 3e-3 0.0029 3e-3 3e-3 0.0029 3e-3 3e-3 3e-3 3e-3 3e-3 0.0029 3e-3 3e-3 3e-3 3e-3 3e-3 3e-3 3e-3 3e-3 0.0031 3e-3 3e-3 3e-3 3e-3 3e-3 0.0031 3e-3 3e-3 0.0031 3e-3 3e-3 0.0031 3e-3 0.0031 3e-3 0.0031 3e-3 0.0031 3e-3 0.0031 0.0031 3e-3 0.0031 0.0031 3e-3 0.0031 0.0031 0.0031 0.0031 3e-3 0.0031 0.0031 0.0031 0.0031 0.0031 0.0031 0.0031 0.0031 0.0031 0.0031 0.0032 0.0031 0.0031 0.0031 0.0031 0.0032 0.0031 0.0031 0.0032 0.0031 0.0031 0.0032 0.0031 0.0032 0.0031 0.0032 0.0031 0.0032 0.0031 0.0032 0.0032 0.0031 0.0032 0.0032 0.0031 0.0032 0.0032 0.0032 0.0032 0.0031 0.0032 0.0032 0.0032 0.0032 0.0032 0.0032 0.0032 0.0032 0.0032 0.0032 0.0033 0.0032 0.0032 0.0032 0.0032 0.0033 0.0032 0.0032 0.0033 0.0032 0.0032 0.0033 0.0032 0.0033 0.0032 0.0033 0.0032 0.0033 0.0032 0.0033 0.0033 0.0032 0.0033 0.0033 0.0032 0.0033 0.0033 0.0033 0.0033 0.0032 0.0033 0.0033 0.0033 0.0033 0.0033 0.0033 0.0033 0.0033 0.0033 0.0034 0.0033 0.0033 0.0033 0.0033 0.0033 0.0034 0.0033 0.0033 0.0034 0.0033 0.0033 0.0034 0.0033 0.0034 0.0033 0.0034 0.0033 0.0034 0.0033 0.0034 0.0034 0.0033 0.0034 0.0034 0.0034 0.0033 0.0034 0.0034 0.0034 0.0034 0.0033 0.0034 0.0034 0.0034 0.0034 0.0034 0.0034 0.0034 0.0035 0.0034 0.0034 0.0034 0.0034 0.0034 0.0035 0.0034 0.0034 0.0034 0.0035 0.0034 0.0035 0.0034 0.0034 0.0035 0.0034 0.0035 0.0034 0.0035 0.0035 0.0034 0.0035 0.0035 0.0034 0.0035 0.0035 0.0034 0.0035 0.0035 0.0035 0.0035 0.0035 0.0035 0.0034 0.0035 0.0035 0.0035 0.0036 0.0035 0.0035 0.0035 0.0035 0.0035 0.0035 0.0036 0.0035 0.0035 0.0035 0.0036 0.0035 0.0035 0.0036 0.0035 0.0036 0.0035 0.0036 0.0035 0.0036 0.0035 0.0036 0.0035 0.0036 0.0036 0.0035 0.0036 0.0036 0.0036 0.0035 0.0036 0.0036 0.0036 0.0036 0.0036 0.0036 0.0036 0.0036 0.0036 0.0036 0.0036 0.0036 0.0036 0.0036 0.0036 0.0037 0.0036 0.0036 0.0036 0.0037 0.0036 0.0036 0.0037 0.0036 0.0036 0.0037 0.0036 0.0037 0.0036 0.0037 0.0036 0.0037 0.0037 0.0036 0.0037 0.0037 0.0036 0.0037 0.0037 0.0037 0.0036 0.0037 0.0037 0.0037 0.0037 0.0037 0.0037 0.0037 0.0037 0.0037 0.0037 0.0037 0.0037 0.0037 0.0038 0.0037 0.0037 0.0037 0.0038 0.0037 0.0037 0.0037 0.0038 0.0037 0.0038 0.0037 0.0038 0.0037 0.0038 0.0037 0.0038 0.0037 0.0038 0.0038 0.0037 0.0038 0.0038 0.0037 0.0038 0.0038 0.0038 0.0038 0.0038 0.0037 0.0038 0.0038 0.0038 0.0038 0.0038 0.0038 0.0038 0.0038 0.0039 0.0038 0.0038 0.0038 0.0038 0.0039 0.0038 0.0038 0.0038 0.0039 0.0038 0.0039 0.0038 0.0038 0.0039 0.0038 0.0039 0.0038 0.0039 0.0039 0.0038 0.0039 0.0039 0.0038 0.0039 0.0039 0.0039 0.0038 0.0039 0.0039 0.0039 0.0039 0.0039 0.0039 0.0039 0.0039 0.0039 0.0039 0.0039 0.0039 0.0039 0.0039 0.0039 4e-3 0.0039 0.0039 0.0039 4e-3 0.0039 0.0039 4e-3 0.0039 0.0039 4e-3 0.0039 4e-3 0.0039 4e-3 0.0039 4e-3 4e-3 0.0039 4e-3 4e-3 0.0039 4e-3 4e-3 4e-3 4e-3 0.0039 4e-3 4e-3 4e-3 4e-3 4e-3 4e-3 4e-3 4e-3 4e-3 4e-3 4e-3 0.0041 4e-3 4e-3 4e-3 4e-3 0.0041 4e-3 4e-3 0.0041 4e-3 4e-3 0.0041 4e-3 0.0041 4e-3 0.0041 4e-3 0.0041 0.0041 4e-3 0.0041 4e-3 0.0041 0.0041 0.0041 4e-3 0.0041 0.0041 0.0041 0.0041 0.0041 0.0041 0.0041 0.0041 0.0041 0.0041 0.0041 0.0041 0.0041 0.0041 0.0041 0.0041 0.0041 0.0042 0.0041 0.0041 0.0041 0.0042 0.0041 0.0042 0.0041 0.0041 0.0042 0.0041 0.0042 0.0041 0.0042 0.0041 0.0042 0.0042 0.0041 0.0042 0.0042 0.0041 0.0042 0.0042 0.0042 0.0042 0.0041 0.0042 0.0042 0.0042 0.0042 0.0042 0.0042 0.0042 0.0042 0.0042 0.0042v-1.6001zm-1.7749 0.0018c-0.4222-0.0281-0.9152-0.0996-1.4821-0.219l-0.3297 1.5657c0.6206 0.1307 1.1902 0.2154 1.7054 0.2498l0.1064-1.5965zm-1.4821-0.219c-0.5187-0.1092-0.9883-0.2847-1.4133-0.5238l-0.7844 1.3946c0.575 0.3234 1.1992 0.5541 1.868 0.6949l0.3297-1.5657zm-1.4106-0.5222c-0.9421-0.5347-1.3292-1.2097-1.3292-2.0699h-1.6c0 1.5148 0.769 2.6835 2.1394 3.4613l0.7898-1.3914zm-1.3483-2.2435c-0.1102-0.4958-0.1684-1.0615-0.1684-1.7014h-1.6c0 0.735 0.0667 1.4194 0.2065 2.0485l1.5619-0.3471zm-0.1684-1.7014c0-0.6171 0.1364-1.4768 0.441-2.6038l-1.5446-0.4175c-0.3204 1.1856-0.4964 2.2008-0.4964 3.0213h1.6zm0.441-2.6038c0.288-1.0657 0.8147-2.2464 1.5998-3.5448l-1.3692-0.8279c-0.8399 1.3891-1.4382 2.7084-1.7752 3.9552l1.5446 0.4175zm1.5927-3.5333c0.8069-1.2851 1.7794-2.4676 2.9196-3.5478l-1.1004-1.1615c-1.2348 1.1698-2.2936 2.456-3.1742 3.8585l1.355 0.8508zm2.924-3.552c2.3826-2.2921 4.9314-3.7428 7.6471-4.3922l-0.3722-1.5562c-3.0343 0.7256-5.8292 2.3374-8.3841 4.7953l1.1092 1.1531zm7.6346-4.3894c0.8006-0.1779 1.5068-0.2621 2.1233-0.2621v-1.6001c-0.7585 0-1.5836 0.1033-2.4704 0.3004l0.3471 1.5618zm2.1233-0.2621c0.6855 0 1.2808 0.0448 1.7903 0.1297l0.2631-1.5782c-0.6155-0.1026-1.3014-0.1516-2.0534-0.1516v1.6001zm1.9219 0.1406c0.703 0 1.2524 0.2303 1.7041 0.6878 0.4731 0.4792 0.8837 1.2549 1.1766 2.4116l1.5512-0.3926c-0.332-1.3121-0.844-2.3879-1.5892-3.1431-0.7671-0.7769-1.7333-1.1637-2.8427-1.1637v1.6zm2.8819 3.1044c0.383 1.4742 0.616 3.59 0.678 6.379l1.599-0.0356c-0.063-2.836-0.299-5.0952-0.728-6.746l-1.549 0.4026zm0.678 6.3882c0.094 2.7818 0.172 4.9403 0.234 6.4744l1.599-0.0653c-0.062-1.5284-0.14-3.6824-0.234-6.4631l-1.599 0.054zm0.235 6.4917c0.097 1.5408 0.306 2.9648 0.632 4.2691l1.552-0.3881c-0.299-1.1957-0.496-2.5217-0.587-3.9809l-1.597 0.0999zm1.408 3.275h-2.7654v1.6001h2.7654v-1.6001zm-1.974 0.6828c-0.124-0.8337-0.2154-1.5695-0.2763-2.2086l-1.5928 0.1517c0.0641 0.6734 0.1598 1.4376 0.2863 2.2914l1.5828-0.2345zm-0.2763-2.2086c-0.0628-0.6598-0.1258-1.2733-0.1888-1.8406l-1.5902 0.1767c0.062 0.5577 0.124 1.1629 0.1862 1.8156l1.5928-0.1517zm-0.1895-1.8468c-0.1585-1.3316-0.3501-2.5007-0.5765-3.5036l-1.5607 0.3525c0.211 0.9346 0.3944 2.0468 0.5484 3.3402l1.5888-0.1891zm-0.7444-10.593c0-1.0261-0.2522-1.9433-0.8974-2.5998-0.6477-0.6591-1.557-0.9189-2.5745-0.9189v1.6c0.7638 0 1.1905 0.1932 1.4334 0.4404 0.2454 0.2497 0.4385 0.6919 0.4385 1.4783h1.6zm-3.3587-3.5107c-0.2559-0.0365-0.5124-0.0549-0.7694-0.0549v1.6c0.1805 0 0.3614 0.0129 0.5431 0.0388l0.2263-1.5839zm-0.7694-0.0549c-2.5457 0-5.1315 1.2201-7.7419 3.476l1.0462 1.2105c2.4521-2.1191 4.6789-3.0865 6.6957-3.0865v-1.6zm-7.7341 3.4693c-1.2424 1.0463-2.3082 2.2262-3.1946 3.5394l1.3261 0.8951c0.8012-1.1868 1.7666-2.2569 2.8991-3.2106l-1.0306-1.2239zm-3.1864 3.5274c-1.2963 1.8472-2.0201 3.6025-2.0201 5.2408h1.6c0-1.1742 0.5261-2.6064 1.7298-4.3217l-1.3097-0.9191zm-2.0201 5.2408c0 1.0838 0.3174 2.0342 1.023 2.7606 0.6915 0.7118 1.6723 1.122 2.8367 1.3104l0.2555-1.5795c-0.9606-0.1554-1.5736-0.4639-1.9445-0.8458-0.3569-0.3674-0.5707-0.8857-0.5707-1.6457h-1.6zm4.0052 4.0811c3.066-0.0682 5.937-1.4696 8.6034-4.071l-1.1173-1.1452c-2.4585 2.3986-4.9626 3.5597-7.5216 3.6165l0.0355 1.5997zm8.6104-4.0779c1.1428-1.1428 2.0944-2.3884 2.8508-3.7368l-1.3954-0.7828c-0.6811 1.2141-1.542 2.3435-2.5867 3.3882l1.1313 1.1314zm2.8446-3.7259c1.0373-1.7828 1.6085-3.4406 1.6085-4.9492h-1.6c0 1.1165-0.4288 2.4899-1.3915 4.1446l1.383 0.8046zm18.874 5.5977-0.8-0.01v0.01h0.8zm0.094-7.5 0.8 0.01v-0.01h-0.8zm-0.328-3.0469 0.774-0.2007-0.155-0.5993h-0.619v0.8zm-7.266 0-0.799 0.0232 0.022 0.7768h0.777v-0.8zm-0.093-3.2343v-0.8001h-0.824l0.024 0.8232 0.8-0.0231zm7.031 0v0.8h0.8v-0.8h-0.8zm0-12.094-0.759-0.25298-0.041 0.12316v0.12982h0.8zm3.141-0.75 0.777-0.18848-0.033-0.13753-0.079-0.11775-0.665 0.44376zm0.89 12.375-0.796 0.0747 0.077 0.8215 0.818-0.1024-0.099-0.7938zm7.078-0.2812 0.8 0.0333 0.039-0.9444-0.938 0.1172 0.099 0.7939zm-0.14 3.375-0.022 0.7996 0.788 0.0216 0.033-0.7879-0.799-0.0333zm-6.844-0.1876 0.022-0.7996-0.834-0.0229 0.012 0.8341 0.8-0.0116zm0.234 16.172 0.325 0.7311 0.483-0.2145-8e-3 -0.5282-0.8 0.0116zm-2.997-4.8181 0.094-7.5-1.6-0.02-0.094 7.5 1.6 0.02zm0.094-7.51c0-1.2326-0.113-2.3195-0.354-3.2476l-1.548 0.4015c0.197 0.7594 0.302 1.7037 0.302 2.8461h1.6zm-1.128-3.8469h-7.266v1.6h7.266v-1.6zm-6.466 0.7768-0.094-3.2343-1.599 0.0463 0.094 3.2344 1.599-0.0464zm-0.893-2.4111h7.031v-1.6001h-7.031v1.6001zm7.831-0.8v-12.094h-1.6v12.094h1.6zm-0.041-11.841c0.043-0.13025 0.147-0.30899 0.369-0.53104l-1.131-1.1314c-0.341 0.34045-0.612 0.72421-0.756 1.1565l1.518 0.50596zm0.369-0.53104c0.193-0.1927 0.342-0.3098 0.448-0.37452 0.112-0.06831 0.126-0.04742 0.065-0.04742v-1.6c-0.343 0-0.65 0.13026-0.897 0.2807-0.253 0.15404-0.502 0.36506-0.747 0.60986l1.131 1.1314zm0.513-0.42194c0.263 0 0.45 0.0269 0.577 0.06297l0.439-1.5384c-0.311-0.08893-0.655-0.12453-1.016-0.12453v1.6zm0.577 0.06297c-0.052-0.01481-0.047-0.02961 0.013 0.02656 0.058 0.05396 0.141 0.14921 0.244 0.30423l1.331-0.88752c-0.267-0.40078-0.638-0.83571-1.149-0.98171l-0.439 1.5384zm0.145 0.07551c0.477 1.967 0.728 4.9986 0.728 9.1396h1.6c0-4.1714-0.25-7.3585-0.773-9.5166l-1.555 0.37696zm0.728 9.1396c0 1.0555 0.048 2.0961 0.144 3.1216l1.593-0.1494c-0.092-0.9745-0.137-1.9652-0.137-2.9722h-1.6zm1.039 3.8407c0.968-0.1209 1.935-0.1813 2.901-0.1813v-1.6c-1.033 0-2.066 0.0646-3.099 0.1937l0.198 1.5876zm2.901-0.9813v0.8h1e-3 1e-3 1e-3 1e-3 1e-3 1e-3 1e-3 1e-3 1e-3 1e-3 1e-3 1e-3 1e-3 1e-3 1e-3 1e-3 1e-3 1e-3 1e-3 1e-3 1e-3 1e-3 1e-3 1e-3 1e-3 1e-3 1e-3 1e-3 1e-3 1e-3 1e-3 2e-3 1e-3 1e-3 1e-3 1e-3 1e-3 1e-3 2e-3 1e-3 1e-3 1e-3 2e-3 1e-3 1e-3 2e-3 1e-3 1e-3 2e-3 1e-3 2e-3 1e-3 2e-3 1e-3 2e-3 1e-3 2e-3 1e-3 2e-3 2e-3 1e-3 2e-3 2e-3 1e-3 2e-3 2e-3 1e-3 2e-3 2e-3 2e-3 1e-3 2e-3 2e-3 2e-3 2e-3 2e-3 2e-3 2e-3 2e-3 2e-3 2e-3 2e-3 2e-3 2e-3 2e-3 2e-3 2e-3 2e-3 2e-3 2e-3 3e-3 2e-3 2e-3 2e-3 3e-3 2e-3 2e-3 2e-3 3e-3 2e-3 3e-3 2e-3 2e-3 3e-3 2e-3 3e-3 2e-3 3e-3 2e-3 3e-3 2e-3 3e-3 2e-3 3e-3 3e-3 2e-3 3e-3 3e-3 2e-3 3e-3 3e-3 3e-3 2e-3 3e-3 3e-3 3e-3 3e-3 3e-3 2e-3 3e-3 3e-3 3e-3 3e-3 3e-3 3e-3 3e-3 3e-3 3e-3 3e-3 4e-3 3e-3 3e-3 3e-3 3e-3 3e-3 3e-3 4e-3 3e-3 3e-3 3e-3 4e-3 3e-3 3e-3 4e-3 3e-3 4e-3 3e-3 3e-3 4e-3 3e-3 4e-3 3e-3 4e-3 3e-3 4e-3 4e-3 3e-3 4e-3 3e-3 4e-3 4e-3 3e-3 4e-3 4e-3 4e-3 3e-3 4e-3 4e-3 4e-3 4e-3 3e-3 4e-3 4e-3 4e-3 4e-3 4e-3 4e-3 4e-3 4e-3 4e-3 4e-3 4e-3 4e-3 4e-3 4e-3 5e-3 4e-3 4e-3 4e-3 4e-3 5e-3 4e-3 4e-3 4e-3 5e-3 4e-3 4e-3 5e-3 4e-3 4e-3 5e-3 4e-3 5e-3 4e-3 5e-3 4e-3 5e-3 4e-3 5e-3 4e-3 5e-3 5e-3 4e-3 5e-3 5e-3 4e-3 5e-3 5e-3 5e-3 4e-3 5e-3 5e-3 5e-3 5e-3 4e-3 5e-3 5e-3 5e-3 5e-3 5e-3 5e-3 5e-3 5e-3 5e-3 5e-3 5e-3 5e-3 5e-3 5e-3 6e-3 5e-3 5e-3 5e-3 5e-3 6e-3 5e-3 5e-3 5e-3 6e-3 5e-3 5e-3 6e-3 5e-3 6e-3 5e-3 5e-3 6e-3 5e-3 6e-3 5e-3 6e-3 5e-3 6e-3 6e-3 5e-3 6e-3 5e-3 6e-3 6e-3 6e-3 5e-3 6e-3 6e-3 6e-3 5e-3 6e-3 6e-3 6e-3 6e-3 6e-3 5e-3 6e-3 6e-3 6e-3 6e-3 6e-3 6e-3 6e-3 6e-3 6e-3 7e-3 6e-3 6e-3 6e-3 6e-3 6e-3 6e-3 7e-3 6e-3 6e-3 6e-3 7e-3 6e-3 6e-3 7e-3 6e-3 7e-3 6e-3 6e-3 7e-3 6e-3 7e-3 6e-3 7e-3 6e-3 7e-3 6e-3 7e-3 7e-3 6e-3 7e-3 7e-3 6e-3 7e-3 7e-3 6e-3 7e-3 7e-3 7e-3 7e-3 6e-3 7e-3 7e-3 7e-3 7e-3 7e-3 7e-3 7e-3 7e-3 7e-3 7e-3 7e-3 7e-3 7e-3 7e-3 7e-3 7e-3 7e-3 8e-3 7e-3 7e-3 7e-3 7e-3 8e-3 7e-3 7e-3 8e-3 7e-3 7e-3 8e-3 7e-3 7e-3 8e-3 7e-3 8e-3 7e-3 8e-3 7e-3 8e-3 7e-3 8e-3 8e-3 7e-3 8e-3 8e-3 7e-3 8e-3 8e-3 7e-3 8e-3 8e-3 8e-3 7e-3 8e-3 8e-3 8e-3 8e-3 8e-3 8e-3 8e-3 7e-3 8e-3 8e-3 8e-3 8e-3 9e-3 8e-3 8e-3 8e-3 8e-3 8e-3 8e-3 8e-3 9e-3 8e-3 8e-3 8e-3 8e-3 9e-3 8e-3 8e-3 9e-3 8e-3 8e-3 9e-3 8e-3 9e-3 8e-3 9e-3 8e-3 9e-3 8e-3 9e-3 8e-3 9e-3 8e-3 9e-3 9e-3 8e-3 9e-3 9e-3 8e-3 9e-3 9e-3 9e-3 8e-3 9e-3 9e-3 9e-3 9e-3 9e-3 9e-3 9e-3 8e-3 9e-3 9e-3 9e-3 9e-3 9e-3 9e-3 0.01 9e-3 9e-3 9e-3 9e-3 9e-3 9e-3 0.01 9e-3 9e-3 9e-3 9e-3 0.01 9e-3 9e-3 0.01 9e-3 9e-3 0.01 9e-3 0.01 9e-3 0.01 9e-3 0.01v-1.6h-0.01-9e-3 -0.01-9e-3 -0.01-9e-3 -0.01-9e-3 -9e-3 -0.01-9e-3 -9e-3 -0.01-9e-3 -9e-3 -9e-3 -9e-3 -0.01-9e-3 -9e-3 -9e-3 -9e-3 -9e-3 -9e-3 -0.01-9e-3 -9e-3 -9e-3 -9e-3 -9e-3 -9e-3 -8e-3 -9e-3 -9e-3 -9e-3 -9e-3 -9e-3 -9e-3 -9e-3 -8e-3 -9e-3 -9e-3 -9e-3 -8e-3 -9e-3 -9e-3 -8e-3 -9e-3 -9e-3 -8e-3 -9e-3 -8e-3 -9e-3 -8e-3 -9e-3 -8e-3 -9e-3 -8e-3 -9e-3 -8e-3 -9e-3 -8e-3 -8e-3 -9e-3 -8e-3 -8e-3 -9e-3 -8e-3 -8e-3 -8e-3 -8e-3 -9e-3 -8e-3 -8e-3 -8e-3 -8e-3 -8e-3 -8e-3 -8e-3 -9e-3 -8e-3 -8e-3 -8e-3 -8e-3 -7e-3 -8e-3 -8e-3 -8e-3 -8e-3 -8e-3 -8e-3 -8e-3 -7e-3 -8e-3 -8e-3 -8e-3 -7e-3 -8e-3 -8e-3 -7e-3 -8e-3 -8e-3 -7e-3 -8e-3 -8e-3 -7e-3 -8e-3 -7e-3 -8e-3 -7e-3 -8e-3 -7e-3 -8e-3 -7e-3 -7e-3 -8e-3 -7e-3 -7e-3 -8e-3 -7e-3 -7e-3 -8e-3 -7e-3 -7e-3 -7e-3 -7e-3 -8e-3 -7e-3 -7e-3 -7e-3 -7e-3 -7e-3 -7e-3 -7e-3 -7e-3 -7e-3 -7e-3 -7e-3 -7e-3 -7e-3 -7e-3 -7e-3 -7e-3 -7e-3 -6e-3 -7e-3 -7e-3 -7e-3 -7e-3 -6e-3 -7e-3 -7e-3 -6e-3 -7e-3 -7e-3 -6e-3 -7e-3 -7e-3 -6e-3 -7e-3 -6e-3 -7e-3 -6e-3 -7e-3 -6e-3 -7e-3 -6e-3 -6e-3 -7e-3 -6e-3 -7e-3 -6e-3 -6e-3 -7e-3 -6e-3 -6e-3 -6e-3 -7e-3 -6e-3 -6e-3 -6e-3 -6e-3 -6e-3 -6e-3 -7e-3 -6e-3 -6e-3 -6e-3 -6e-3 -6e-3 -6e-3 -6e-3 -6e-3 -6e-3 -5e-3 -6e-3 -6e-3 -6e-3 -6e-3 -6e-3 -5e-3 -6e-3 -6e-3 -6e-3 -5e-3 -6e-3 -6e-3 -6e-3 -5e-3 -6e-3 -5e-3 -6e-3 -6e-3 -5e-3 -6e-3 -5e-3 -6e-3 -5e-3 -6e-3 -5e-3 -5e-3 -6e-3 -5e-3 -6e-3 -5e-3 -5e-3 -6e-3 -5e-3 -5e-3 -5e-3 -6e-3 -5e-3 -5e-3 -5e-3 -5e-3 -6e-3 -5e-3 -5e-3 -5e-3 -5e-3 -5e-3 -5e-3 -5e-3 -5e-3 -5e-3 -5e-3 -5e-3 -5e-3 -5e-3 -5e-3 -4e-3 -5e-3 -5e-3 -5e-3 -5e-3 -4e-3 -5e-3 -5e-3 -5e-3 -4e-3 -5e-3 -5e-3 -4e-3 -5e-3 -5e-3 -4e-3 -5e-3 -4e-3 -5e-3 -4e-3 -5e-3 -4e-3 -5e-3 -4e-3 -5e-3 -4e-3 -4e-3 -5e-3 -4e-3 -4e-3 -5e-3 -4e-3 -4e-3 -4e-3 -5e-3 -4e-3 -4e-3 -4e-3 -4e-3 -5e-3 -4e-3 -4e-3 -4e-3 -4e-3 -4e-3 -4e-3 -4e-3 -4e-3 -4e-3 -4e-3 -4e-3 -4e-3 -4e-3 -4e-3 -3e-3 -4e-3 -4e-3 -4e-3 -4e-3 -3e-3 -4e-3 -4e-3 -4e-3 -3e-3 -4e-3 -4e-3 -3e-3 -4e-3 -3e-3 -4e-3 -4e-3 -3e-3 -4e-3 -3e-3 -4e-3 -3e-3 -4e-3 -3e-3 -3e-3 -4e-3 -3e-3 -4e-3 -3e-3 -3e-3 -4e-3 -3e-3 -3e-3 -3e-3 -4e-3 -3e-3 -3e-3 -3e-3 -3e-3 -3e-3 -3e-3 -4e-3 -3e-3 -3e-3 -3e-3 -3e-3 -3e-3 -3e-3 -3e-3 -3e-3 -3e-3 -3e-3 -2e-3 -3e-3 -3e-3 -3e-3 -3e-3 -3e-3 -2e-3 -3e-3 -3e-3 -3e-3 -2e-3 -3e-3 -3e-3 -2e-3 -3e-3 -3e-3 -2e-3 -3e-3 -2e-3 -3e-3 -2e-3 -3e-3 -2e-3 -3e-3 -2e-3 -3e-3 -2e-3 -2e-3 -3e-3 -2e-3 -3e-3 -2e-3 -2e-3 -2e-3 -3e-3 -2e-3 -2e-3 -2e-3 -3e-3 -2e-3 -2e-3 -2e-3 -2e-3 -2e-3 -2e-3 -2e-3 -2e-3 -2e-3 -2e-3 -2e-3 -2e-3 -2e-3 -2e-3 -2e-3 -2e-3 -2e-3 -2e-3 -2e-3 -1e-3 -2e-3 -2e-3 -2e-3 -1e-3 -2e-3 -2e-3 -1e-3 -2e-3 -2e-3 -1e-3 -2e-3 -2e-3 -1e-3 -2e-3 -1e-3 -2e-3 -1e-3 -2e-3 -1e-3 -2e-3 -1e-3 -2e-3 -1e-3 -1e-3 -2e-3 -1e-3 -1e-3 -2e-3 -1e-3 -1e-3 -1e-3 -2e-3 -1e-3 -1e-3 -1e-3 -1e-3 -1e-3 -1e-3 -2e-3 -1e-3 -1e-3 -1e-3 -1e-3 -1e-3 -1e-3 -1e-3 -1e-3 -1e-3 -1e-3 -1e-3 -1e-3 -1e-3 -1e-3 -1e-3 -1e-3 -1e-3 -1e-3 -1e-3 -1e-3 -1e-3 -1e-3 -1e-3 -1e-3 -1e-3 -1e-3 -1e-3 -1e-3 -1e-3 -1e-3 -1e-3v0.8zm2.438 0.8c0.621 0 1.201-0.0327 1.74-0.0999l-0.199-1.5877c-0.462 0.0578-0.975 0.0876-1.541 0.0876v1.6zm0.841-0.9271-0.141 3.375 1.599 0.0667 0.141-3.375-1.599-0.0667zm0.681 2.6087-6.844-0.1875-0.044 1.5993 6.844 0.1875 0.044-1.5993zm-7.666 0.6237 0.234 16.172 1.6-0.0232-0.234-16.172-1.6 0.0231zm0.709 15.429c-0.508 0.2257-0.876 0.306-1.128 0.306v1.6c0.561 0 1.161-0.1697 1.778-0.4439l-0.65-1.4621zm-1.128 0.306c-0.232 0-0.404-0.0609-0.549-0.1682-0.155-0.1143-0.323-0.3154-0.479-0.6611-0.32-0.7108-0.516-1.8745-0.516-3.5738h-1.6c0 1.7695 0.196 3.2073 0.657 4.2309 0.235 0.5214 0.554 0.9708 0.986 1.2901 0.441 0.3262 0.952 0.4821 1.501 0.4821v-1.6zm36.769-6.9343v-0.8001h-0.172l-0.158 0.0711 0.33 0.729zm0.844 0.375-0.602 0.5268 0.017 0.02 0.019 0.0188 0.566-0.5656zm0.328 0.7968 0.689 0.4056 0.111-0.1877v-0.2179h-0.8zm-17.063 5.5782-0.202 0.774 5e-3 0.0011 0.197-0.7751zm-6.328-5.8594-0.795 0.0837 5e-3 0.0558 0.014 0.0545 0.776-0.194zm0.656-6.3282-0.761-0.2443-3e-3 0.0091 0.764 0.2352zm18.563-7.5468 0.39-0.6984-2e-3 -1e-3 -0.388 0.6994zm3.422 4.9687-0.792-0.1131-6e-3 0.0432-2e-3 0.0437 0.8 0.0262zm-2.766 3.6094 0.216 0.7704v-2e-4l-0.216-0.7702zm-2.719 0.3281-0.033 0.7993 0.017 7e-4h0.016v-0.8zm-6.75-0.2812 0.034-0.7993-0.017-7e-4h-0.017v0.8zm-5.156 1.4531 0.489 0.633 9e-3 -0.0064 8e-3 -0.0067-0.506-0.6199zm-1.453 2.3906-0.773-0.2047-0.056 0.2086 0.058 0.2081 0.771-0.212zm14.344-10.219-0.471 0.647 7e-3 0.0049 7e-3 0.0048 0.457-0.6567zm-6.469-0.8906 0.214 0.7708 0.01-0.0028 0.01-3e-3 -0.234-0.765zm-3 1.0781 0.337 0.7257v-1e-4l-0.337-0.7256zm-3.234 3.1406h-0.8v0.7331l0.73 0.0639 0.07-0.797zm12.656-0.5625-0.308-0.7385-0.021 9e-3 -0.021 0.0103 0.35 0.7192zm-8.297 12.519c2.935 0 7.212-1.3174 12.751-3.8211l-0.659-1.4579c-5.523 2.4963-9.527 3.6789-12.092 3.6789v1.6001zm12.422-3.75c0.122 0 0.181 0.0321 0.242 0.1018l1.204-1.0537c-0.377-0.4303-0.881-0.6482-1.446-0.6482v1.6001zm0.278 0.1406c0.067 0.0671 0.094 0.1285 0.094 0.2312h1.6c0-0.5222-0.192-0.9921-0.563-1.3625l-1.131 1.1313zm0.204-0.1744c-1.113 1.8922-3.298 3.4597-6.737 4.6161l0.51 1.5165c3.624-1.2186 6.219-2.9635 7.606-5.3214l-1.379-0.8112zm-6.737 4.6161c-3.412 1.1473-6.55 1.3292-9.438 0.5925l-0.395 1.5503c3.236 0.8258 6.692 0.6015 10.343-0.6263l-0.51-1.5165zm-9.433 0.5936c-3.241-0.8465-5.088-2.6137-5.755-5.2794l-1.552 0.3881c0.834 3.3343 3.205 5.4734 6.902 6.4394l0.405-1.5481zm-5.735-5.1691c-0.058-0.5536-0.09-1.3189-0.09-2.3068h-1.6c0 1.012 0.032 1.8405 0.099 2.4743l1.591-0.1675zm-0.09-2.3068c0-0.8837 0.225-2.1081 0.715-3.7023l-1.529-0.4705c-0.51 1.6558-0.786 3.0564-0.786 4.1728h1.6zm0.712-3.6932c0.496-1.5453 1.331-3.0163 2.52-4.4134l-1.219-1.0369c-1.311 1.5404-2.257 3.1944-2.824 4.9616l1.523 0.4887zm2.52-4.4134c1.181-1.3887 2.565-2.4771 4.154-3.2717l-0.715-1.431c-1.786 0.8929-3.34 2.117-4.658 3.6658l1.219 1.0369zm4.154-3.2717c1.576-0.7876 3.25-1.1811 5.033-1.1811v-1.6c-2.029 0-3.948 0.4502-5.748 1.3501l0.715 1.431zm5.033-1.1811c1.632 0 3.527 0.5642 5.705 1.7743l0.777-1.3987c-2.321-1.2898-4.488-1.9756-6.482-1.9756v1.6zm5.704 1.7733c0.997 0.5573 1.758 1.1708 2.307 1.8294l1.229-1.0242c-0.701-0.8414-1.628-1.5717-2.756-2.2019l-0.78 1.3967zm2.307 1.8294c0.536 0.6432 0.752 1.2337 0.752 1.7848h1.6c0-1.0114-0.409-1.9522-1.123-2.809l-1.229 1.0242zm0.752 1.7848c0 0.1805-0.013 0.3614-0.039 0.5431l1.584 0.2263c0.036-0.2559 0.055-0.5124 0.055-0.7694h-1.6zm-0.047 0.63c-0.027 0.8297-0.238 1.4334-0.573 1.8717-0.335 0.4361-0.847 0.7799-1.609 0.9937l0.432 1.5404c1.02-0.2862 1.859-0.794 2.447-1.561 0.586-0.7648 0.867-1.7158 0.902-2.7924l-1.599-0.0524zm-2.182 2.8652c-0.695 0.1946-1.526 0.2985-2.503 0.2985v1.6c1.086 0 2.067-0.1148 2.935-0.3577l-0.432-1.5408zm-2.469 0.2992-6.75-0.2812-0.067 1.5986 6.75 0.2812 0.067-1.5986zm-6.784-0.2819c-2.35 0-4.278 0.5043-5.662 1.6332l1.012 1.2398c0.991-0.8086 2.501-1.273 4.65-1.273v-1.6zm-5.645 1.6201c-0.86 0.6646-1.423 1.632-1.737 2.8189l1.546 0.4094c0.249-0.938 0.654-1.5644 1.169-1.9623l-0.978-1.266zm-1.735 3.2356c0.429 1.5623 1.214 2.8011 2.393 3.6393 1.172 0.8332 2.654 1.2144 4.378 1.2144v-1.6001c-1.495 0-2.622-0.3297-3.45-0.9184-0.821-0.5836-1.427-1.4777-1.779-2.7591l-1.542 0.4239zm15.585-11.078c-0.755-0.5495-1.556-0.9524-2.402-1.1992l-0.448 1.5361c0.654 0.1907 1.29 0.5065 1.909 0.9571l0.941-1.294zm-2.402-1.1992c-0.787-0.2294-1.494-0.3601-2.099-0.3601v1.6c0.394 0 0.937 0.0881 1.651 0.2962l0.448-1.5361zm-2.099-0.3601c-0.631 0-1.546 0.2064-2.672 0.5506l0.468 1.5301c1.124-0.3433 1.835-0.4807 2.204-0.4807v-1.6zm-2.652 0.5448c-1.159 0.3219-2.201 0.6954-3.123 1.1234l0.674 1.4512c0.828-0.3845 1.786-0.7298 2.877-1.0329l-0.428-1.5417zm-3.123 1.1232c-1.117 0.5185-2.016 1.0753-2.646 1.687-0.635 0.6162-1.051 1.3454-1.051 2.1794h1.6c0-0.2597 0.122-0.6009 0.566-1.0315 0.448-0.4352 1.166-0.9018 2.205-1.3834l-0.674-1.4515zm-2.967 4.6634c2.505 0.2191 4.408 0.3311 5.695 0.3311v-1.6c-1.214 0-3.061-0.1067-5.556-0.3251l-0.139 1.594zm5.695 0.3311c1.754 0 3.243-0.0749 4.46-0.229 1.204-0.1525 2.196-0.3889 2.921-0.7424l-0.7-1.4384c-0.494 0.2403-1.283 0.4492-2.422 0.5935-1.128 0.1428-2.545 0.2163-4.259 0.2163v1.6zm7.339-0.9521c0.812-0.3384 1.617-0.923 1.617-1.9104h-1.6c0 0.0071-1e-3 0.0105-4e-3 0.017-3e-3 0.0085-0.016 0.0337-0.054 0.0735-0.083 0.0865-0.255 0.2098-0.575 0.3429l0.616 1.477zm1.617-1.9104c0-0.9456-0.611-1.687-1.421-2.2504l-0.914 1.3134c0.628 0.4366 0.735 0.7577 0.735 0.937h1.6zm11.406-1.9687-0.743 0.2971 8e-3 0.0198 9e-3 0.0194 0.726-0.3363zm0.797-2.25-0.5-0.6247-0.016 0.013-0.015 0.0137 0.531 0.598zm0.984-0.3282-0.072 0.7968 0.036 0.0033h0.036v-0.8001zm0.891 0.6563-0.715 0.3578 5e-3 0.0108 6e-3 0.0107 0.704-0.3793zm7.875 14.625-0.704 0.3793 0.631 1.1725 0.739-1.108-0.666-0.4438zm1.172-2.0625-0.702-0.3831-5e-3 0.0078 0.707 0.3753zm1.875-3.4688-0.698-0.3914-3e-3 0.0066-4e-3 0.0066 0.705 0.3782zm2.203-3.9843-0.699-0.3886-3e-3 0.0055 0.702 0.3831zm2.156-3.8438 0.696 0.3949 1e-3 -0.0015-0.697-0.3934zm4.078-3.2343-0.697 0.3922 0.015 0.0263 0.017 0.0252 0.665-0.4437zm0.469 1.5937 0.727 0.3337 0.073-0.1589v-0.1748h-0.8zm-4.875 10.547-0.725-0.338-3e-3 0.0059 0.728 0.3321zm-2.953 6.2812-0.711-0.3669-4e-3 0.0092 0.715 0.3577zm-1.266 2.25 0.663 0.4487 3e-3 -0.0049-0.666-0.4438zm-4.078 0-0.621 0.5046 8e-3 0.0095 0.613-0.5141zm-2.765-3.9844-0.685 0.4138 6e-3 0.0091 0.679-0.4229zm-5.82-13.094c-0.021-0.0516-0.037-0.1212-0.037-0.2185h-1.6c0 0.2776 0.047 0.5517 0.151 0.8127l1.486-0.5942zm-0.037-0.2185c0-0.0501 0.025-0.2081 0.163-0.5128l-1.456-0.662c-0.175 0.3828-0.307 0.7873-0.307 1.1748h1.6zm0.163-0.5128c0.11-0.2423 0.262-0.4482 0.46-0.6237l-1.063-1.1959c-0.365 0.3246-0.651 0.7124-0.853 1.1576l1.456 0.662zm0.428-0.5969c0.179-0.1431 0.307-0.1657 0.412-0.1561l0.145-1.5935c-0.582-0.0529-1.11 0.1432-1.557 0.5002l1 1.2494zm0.484-0.1528c8e-3 0 0.013 5e-4 0.016 9e-4 2e-3 4e-4 3e-3 7e-4 3e-3 8e-4 0 0 1e-3 1e-4 2e-3 7e-4 1e-3 7e-4 4e-3 0.0023 9e-3 0.0057 0.019 0.0139 0.075 0.0648 0.146 0.2059l1.431-0.7156c-0.306-0.6112-0.833-1.0985-1.607-1.0985v1.6001zm0.187 0.2355 7.875 14.625 1.408-0.7586-7.875-14.625-1.408 0.7586zm9.245 14.69c0.274-0.4121 0.682-1.1321 1.212-2.131l-1.413-0.7506c-0.531 1.0011-0.905 1.6561-1.131 1.994l1.332 0.8876zm1.208-2.1232c0.564-1.0332 1.19-2.1911 1.878-3.4736l-1.41-0.7565c-0.687 1.28-1.311 2.4346-1.872 3.4639l1.404 0.7662zm1.871-3.4604c0.72-1.2842 1.456-2.6151 2.207-3.9927l-1.404-0.7662c-0.749 1.3724-1.482 2.6977-2.199 3.976l1.396 0.7829zm2.204-3.9873c0.781-1.4046 1.498-2.6836 2.153-3.8374l-1.391-0.7898c-0.658 1.1588-1.378 2.4422-2.16 3.8502l1.398 0.777zm2.154-3.8389c0.747-1.3232 1.333-2.298 1.761-2.9361 0.216-0.322 0.377-0.5368 0.489-0.6633 0.057-0.0649 0.082-0.0842 0.078-0.0809-3e-3 0.0022-0.029 0.0221-0.076 0.0437-0.043 0.0202-0.141 0.0589-0.277 0.0589v-1.6001c-0.313 0-0.538 0.1644-0.62 0.2271-0.113 0.0863-0.216 0.1916-0.305 0.2927-0.181 0.2055-0.389 0.4888-0.618 0.8308-0.463 0.69-1.073 1.7074-1.825 3.0404l1.393 0.7868zm1.975-3.5777c0.418 0 0.593 0.1349 0.709 0.3422l1.395-0.7845c-0.446-0.7927-1.209-1.1578-2.104-1.1578v1.6001zm0.741 0.3937c0.14 0.2104 0.23 0.3745 0.283 0.4963 0.057 0.13 0.051 0.1673 0.051 0.1381h1.6c0-0.2793-0.084-0.5467-0.183-0.776-0.104-0.2376-0.248-0.4876-0.42-0.7459l-1.331 0.8875zm0.334 0.6344v0.0014 0.0015 0.0015 0.0014 0.0015 0.0014 0.0015 0.0014 0.0015 0.0014 0.0015 0.0014 0.0015 0.0014 0.0014 0.0015 0.0014 0.0015 0.0014 0.0014 0.0014 0.0015 0.0014 0.0014 0.0014 0.0015 0.0014 0.0014 0.0014 0.0014 0.0014 0.0014 0.0014 0.0014 0.0014 0.0015 0.0014 0.0013 0.0014 0.0014 0.0014 0.0014 0.0014 0.0014 0.0014 0.0014 0.0013 0.0014 0.0014 0.0014 0.0014 0.0013 0.0014 0.0014 0.0013 0.0014 0.0014 0.0013 0.0014 0.0013 0.0014 0.0014 0.0013 0.0014 0.0013 0.0014 0.0013 0.0014 0.0013 0.0013 0.0014 0.0013 0.0013 0.0014 0.0013 0.0013 0.0014 0.0013 0.0013 0.0013 0.0014 0.0013 0.0013 0.0013 0.0013 0.0013 0.0013 0.0014 0.0013 0.0013 0.0013 0.0013 0.0013 0.0013 0.0013 0.0013 0.0013 0.0012 0.0013 0.0013 0.0013 0.0013 0.0013 0.0012 0.0013 0.0013 0.0013 0.0012 0.0013 0.0013 0.0013 0.0012 0.0013 0.0012 0.0013 0.0013 0.0012 0.0013 0.0012 0.0013 0.0012 0.0013 0.0012 0.0013 0.0012 0.0013 0.0012 0.0012 0.0013 0.0012 0.0012 0.0013 0.0012 0.0012 0.0012 0.0013 0.0012 0.0012 0.0012 0.0012 0.0012 0.0013 0.0012 0.0012 0.0012 0.0012 0.0012 0.0012 0.0012 0.0012 0.0012 0.0012 0.0012 0.0012 0.0011 0.0012 0.0012 0.0012 0.0012 0.0012 0.0011 0.0012 0.0012 0.0012 0.0011 0.0012 0.0012 0.0011 0.0012 0.0012 0.0011 0.0012 0.0011 0.0012 0.0011 0.0012 0.0011 0.0012 0.0011 0.0012 0.0011 0.0012 0.0011 0.0011 0.0012 0.0011 0.0011 0.0012 0.0011 0.0011 0.0011 0.0012 0.0011 0.0011 0.0011 0.0011 0.0012 0.0011 0.0011 0.0011 0.0011 0.0011 0.0011 0.0011 0.0011 0.0011 0.0011 0.0011 0.0011 0.0011 0.0011 1e-3 0.0011 0.0011 0.0011 0.0011 1e-3 0.0011 0.0011 0.0011 1e-3 0.0011 0.0011 1e-3 0.0011 0.0011 1e-3 0.0011 1e-3 0.0011 1e-3 0.0011 1e-3 0.0011 1e-3 0.0011 1e-3 0.0011 1e-3 1e-3 0.0011 1e-3 1e-3 0.0011 1e-3 1e-3 1e-3 0.0011 1e-3 1e-3 1e-3 1e-3 0.0011 1e-3 1e-3 1e-3 1e-3 1e-3 1e-3 1e-3 1e-3 1e-3 1e-3 1e-3 1e-3 1e-3 1e-3 9e-4 1e-3 1e-3 1e-3 1e-3 9e-4 1e-3 1e-3 1e-3 9e-4 1e-3 1e-3 9e-4 1e-3 1e-3 9e-4 1e-3 9e-4 1e-3 9e-4 1e-3 9e-4 1e-3 9e-4 1e-3 9e-4 1e-3 9e-4 9e-4 1e-3 9e-4 9e-4 1e-3 9e-4 9e-4 9e-4 1e-3 9e-4 9e-4 9e-4 9e-4 9e-4 1e-3 9e-4 9e-4 9e-4 9e-4 9e-4 9e-4 9e-4 9e-4 9e-4 9e-4 9e-4 9e-4 8e-4 9e-4 9e-4 9e-4 9e-4 9e-4 8e-4 9e-4 9e-4 9e-4 8e-4 9e-4 9e-4 8e-4 9e-4 9e-4 8e-4 9e-4 8e-4 9e-4 8e-4 9e-4 8e-4 9e-4 8e-4 9e-4 8e-4 8e-4 9e-4 8e-4 9e-4 8e-4 8e-4 8e-4 9e-4 8e-4 8e-4 8e-4 9e-4 8e-4 8e-4 8e-4 8e-4 8e-4 9e-4 8e-4 8e-4 8e-4 8e-4 8e-4 8e-4 8e-4 8e-4 8e-4 7e-4 8e-4 8e-4 8e-4 8e-4 8e-4 8e-4 7e-4 8e-4 8e-4 8e-4 7e-4 8e-4 8e-4 7e-4 8e-4 8e-4 7e-4 8e-4 7e-4 8e-4 8e-4 7e-4 8e-4 7e-4 8e-4 7e-4 7e-4 8e-4 7e-4 8e-4 7e-4 7e-4 8e-4 7e-4 7e-4 8e-4 7e-4 7e-4 7e-4 7e-4 8e-4 7e-4 7e-4 7e-4 7e-4 7e-4 7e-4 7e-4 7e-4 7e-4 7e-4 7e-4 7e-4 7e-4 7e-4 7e-4 7e-4 7e-4 7e-4 7e-4 7e-4 6e-4 7e-4 7e-4 7e-4 6e-4 7e-4 7e-4 7e-4 6e-4 7e-4 6e-4 7e-4 7e-4 6e-4 7e-4 6e-4 7e-4 6e-4 7e-4 6e-4 7e-4 6e-4 7e-4 6e-4 6e-4 7e-4 6e-4 6e-4 7e-4 6e-4 6e-4 7e-4 6e-4 6e-4 6e-4 6e-4 7e-4 6e-4 6e-4 6e-4 6e-4 6e-4 6e-4 6e-4 6e-4 6e-4 6e-4 6e-4 6e-4 6e-4 6e-4 6e-4 6e-4 6e-4 5e-4 6e-4 6e-4 6e-4 6e-4 5e-4 6e-4 6e-4 5e-4 6e-4 6e-4 5e-4 6e-4 6e-4 5e-4 6e-4 5e-4 6e-4 5e-4 6e-4h1.6v-6e-4 -5e-4 -6e-4 -5e-4 -6e-4 -5e-4 -6e-4 -6e-4 -5e-4 -6e-4 -6e-4 -5e-4 -6e-4 -6e-4 -5e-4 -6e-4 -6e-4 -6e-4 -6e-4 -5e-4 -6e-4 -6e-4 -6e-4 -6e-4 -6e-4 -6e-4 -6e-4 -6e-4 -6e-4 -6e-4 -6e-4 -6e-4 -6e-4 -6e-4 -6e-4 -6e-4 -6e-4 -7e-4 -6e-4 -6e-4 -6e-4 -6e-4 -7e-4 -6e-4 -6e-4 -7e-4 -6e-4 -6e-4 -7e-4 -6e-4 -6e-4 -7e-4 -6e-4 -7e-4 -6e-4 -7e-4 -6e-4 -7e-4 -6e-4 -7e-4 -6e-4 -7e-4 -7e-4 -6e-4 -7e-4 -6e-4 -7e-4 -7e-4 -7e-4 -6e-4 -7e-4 -7e-4 -7e-4 -6e-4 -7e-4 -7e-4 -7e-4 -7e-4 -7e-4 -7e-4 -7e-4 -7e-4 -7e-4 -7e-4 -7e-4 -7e-4 -7e-4 -7e-4 -7e-4 -7e-4 -7e-4 -7e-4 -7e-4 -7e-4 -8e-4 -7e-4 -7e-4 -7e-4 -7e-4 -8e-4 -7e-4 -7e-4 -8e-4 -7e-4 -7e-4 -8e-4 -7e-4 -8e-4 -7e-4 -7e-4 -8e-4 -7e-4 -8e-4 -7e-4 -8e-4 -8e-4 -7e-4 -8e-4 -7e-4 -8e-4 -8e-4 -7e-4 -8e-4 -8e-4 -7e-4 -8e-4 -8e-4 -8e-4 -7e-4 -8e-4 -8e-4 -8e-4 -8e-4 -8e-4 -8e-4 -7e-4 -8e-4 -8e-4 -8e-4 -8e-4 -8e-4 -8e-4 -8e-4 -8e-4 -8e-4 -9e-4 -8e-4 -8e-4 -8e-4 -8e-4 -8e-4 -9e-4 -8e-4 -8e-4 -8e-4 -9e-4 -8e-4 -8e-4 -8e-4 -9e-4 -8e-4 -9e-4 -8e-4 -8e-4 -9e-4 -8e-4 -9e-4 -8e-4 -9e-4 -8e-4 -9e-4 -8e-4 -9e-4 -8e-4 -9e-4 -9e-4 -8e-4 -9e-4 -9e-4 -8e-4 -9e-4 -9e-4 -9e-4 -8e-4 -9e-4 -9e-4 -9e-4 -9e-4 -9e-4 -8e-4 -9e-4 -9e-4 -9e-4 -9e-4 -9e-4 -9e-4 -9e-4 -9e-4 -9e-4 -9e-4 -9e-4 -9e-4 -1e-3 -9e-4 -9e-4 -9e-4 -9e-4 -9e-4 -1e-3 -9e-4 -9e-4 -9e-4 -1e-3 -9e-4 -9e-4 -1e-3 -9e-4 -9e-4 -1e-3 -9e-4 -1e-3 -9e-4 -1e-3 -9e-4 -1e-3 -9e-4 -1e-3 -9e-4 -1e-3 -9e-4 -1e-3 -1e-3 -9e-4 -1e-3 -1e-3 -9e-4 -1e-3 -1e-3 -1e-3 -9e-4 -1e-3 -1e-3 -1e-3 -1e-3 -9e-4 -1e-3 -1e-3 -1e-3 -1e-3 -1e-3 -1e-3 -1e-3 -1e-3 -1e-3 -1e-3 -1e-3 -1e-3 -1e-3 -1e-3 -0.0011-1e-3 -1e-3 -1e-3 -1e-3 -0.0011-1e-3 -1e-3 -1e-3 -0.0011-1e-3 -1e-3 -0.0011-1e-3 -1e-3 -0.0011-1e-3 -0.0011-1e-3 -0.0011-1e-3 -0.0011-1e-3 -0.0011-1e-3 -0.0011-1e-3 -0.0011-0.0011-1e-3 -0.0011-0.0011-1e-3 -0.0011-0.0011-0.0011-1e-3 -0.0011-0.0011-0.0011-0.0011-1e-3 -0.0011-0.0011-0.0011-0.0011-0.0011-0.0011-0.0011-0.0011-0.0011-0.0011-0.0011-0.0011-0.0011-0.0011-0.0012-0.0011-0.0011-0.0011-0.0011-0.0012-0.0011-0.0011-0.0011-0.0012-0.0011-0.0011-0.0012-0.0011-0.0011-0.0012-0.0011-0.0012-0.0011-0.0012-0.0011-0.0012-0.0011-0.0012-0.0011-0.0012-0.0011-0.0012-0.0012-0.0011-0.0012-0.0012-0.0011-0.0012-0.0012-0.0012-0.0011-0.0012-0.0012-0.0012-0.0012-0.0012-0.0011-0.0012-0.0012-0.0012-0.0012-0.0012-0.0012-0.0012-0.0012-0.0012-0.0012-0.0012-0.0012-0.0013-0.0012-0.0012-0.0012-0.0012-0.0012-0.0013-0.0012-0.0012-0.0012-0.0013-0.0012-0.0012-0.0013-0.0012-0.0012-0.0013-0.0012-0.0013-0.0012-0.0013-0.0012-0.0013-0.0012-0.0013-0.0012-0.0013-0.0013-0.0012-0.0013-0.0012-0.0013-0.0013-0.0013-0.0012-0.0013-0.0013-0.0013-0.0012-0.0013-0.0013-0.0013-0.0013-0.0013-0.0012-0.0013-0.0013-0.0013-0.0013-0.0013-0.0013-0.0013-0.0013-0.0013-0.0014-0.0013-0.0013-0.0013-0.0013-0.0013-0.0013-0.0014-0.0013-0.0013-0.0013-0.0014-0.0013-0.0013-0.0014-0.0013-0.0013-0.0014-0.0013-0.0013-0.0014-0.0013-0.0014-0.0013-0.0014-0.0013-0.0014-0.0014-0.0013-0.0014-0.0013-0.0014-0.0014-0.0013-0.0014-0.0014-0.0013-0.0014-0.0014-0.0014-0.0014-0.0013-0.0014-0.0014-0.0014-0.0014-0.0014-0.0014-0.0014-0.0014-0.0013-0.0014-0.0015-0.0014-0.0014-0.0014-0.0014-0.0014-0.0014-0.0014-0.0014-0.0014-0.0015-0.0014-0.0014-0.0014-0.0015-0.0014-0.0014-0.0014-0.0015-0.0014-0.0015-0.0014-0.0014-0.0015-0.0014-0.0015-0.0014-0.0015-0.0014-0.0015-0.0014-0.0015-0.0014-0.0015-0.0015-0.0014h-1.6zm0.073 0.1819c-1.749 3.8113-3.374 7.3255-4.873 10.543l1.45 0.6758c1.501-3.2204 3.127-6.7374 4.877-10.551l-1.454-0.6674zm-4.876 10.548c-1.47 3.2227-2.446 5.298-2.936 6.2464l1.422 0.7338c0.51-0.9891 1.503-3.1012 2.97-6.316l-1.456-0.6642zm-2.94 6.2556c-0.462 0.922-0.867 1.6397-1.216 2.164l1.331 0.8875c0.401-0.6008 0.839-1.3831 1.316-2.336l-1.431-0.7155zm-1.213 2.159c-0.631 0.932-1.063 1.1018-1.259 1.1018v1.6001c1.053 0 1.903-0.799 2.584-1.8045l-1.325-0.8974zm-1.259 1.1018c-0.103 0-0.284-0.0402-0.561-0.2266-0.276-0.1861-0.605-0.4898-0.983-0.9406l-1.226 1.0282c0.435 0.518 0.872 0.9409 1.315 1.2392 0.442 0.2979 0.932 0.4999 1.455 0.4999v-1.6001zm-1.536-1.1575c-0.783-0.9645-1.686-2.2621-2.707-3.9028l-1.358 0.8457c1.041 1.6718 1.982 3.0305 2.823 4.066l1.242-1.0089zm-2.702-3.8936c-1.79-2.9633-3.963-7.1985-6.521-12.72l-1.452 0.6726c2.568 5.5415 4.769 9.8375 6.604 12.874l1.369-0.8273zm44.006-1.2738v-0.8001h-0.172l-0.157 0.0711 0.329 0.729zm0.844 0.375-0.602 0.5268 0.018 0.02 0.018 0.0188 0.566-0.5656zm0.328 0.7968 0.69 0.4056 0.11-0.1877v-0.2179h-0.8zm-17.062 5.5782-0.203 0.774 5e-3 0.0011 0.198-0.7751zm-6.328-5.8594-0.796 0.0837 6e-3 0.0558 0.013 0.0545 0.777-0.194zm0.656-6.3282-0.762-0.2443-3e-3 0.0091 0.765 0.2352zm18.562-7.5468 0.391-0.6984-2e-3 -1e-3 -0.389 0.6994zm3.422 4.9687-0.792-0.1131-6e-3 0.0432-1e-3 0.0437 0.799 0.0262zm-2.765 3.6094 0.215 0.7704 1e-3 -2e-4 -0.216-0.7702zm-2.719 0.3281-0.033 0.7993 0.016 7e-4h0.017v-0.8zm-6.75-0.2812 0.033-0.7993-0.017-7e-4h-0.016v0.8zm-5.156 1.4531 0.489 0.633 8e-3 -0.0064 8e-3 -0.0067-0.505-0.6199zm-1.454 2.3906-0.773-0.2047-0.055 0.2086 0.057 0.2081 0.771-0.212zm14.344-10.219-0.47 0.647 6e-3 0.0049 7e-3 0.0048 0.457-0.6567zm-6.469-0.8906 0.215 0.7708 9e-3 -0.0028 0.01-3e-3 -0.234-0.765zm-3 1.0781 0.337 0.7257v-1e-4l-0.337-0.7256zm-3.234 3.1406h-0.8v0.7331l0.73 0.0639 0.07-0.797zm12.656-0.5625-0.307-0.7385-0.022 9e-3 -0.021 0.0103 0.35 0.7192zm-8.297 12.519c2.936 0 7.213-1.3174 12.752-3.8211l-0.659-1.4579c-5.523 2.4963-9.528 3.6789-12.093 3.6789v1.6001zm12.422-3.75c0.123 0 0.181 0.0321 0.242 0.1018l1.204-1.0537c-0.376-0.4303-0.88-0.6482-1.446-0.6482v1.6001zm0.278 0.1406c0.067 0.0671 0.094 0.1285 0.094 0.2312h1.6c0-0.5222-0.192-0.9921-0.562-1.3625l-1.132 1.1313zm0.205-0.1744c-1.113 1.8922-3.299 3.4597-6.738 4.6161l0.51 1.5165c3.624-1.2186 6.22-2.9635 7.607-5.3214l-1.379-0.8112zm-6.738 4.6161c-3.411 1.1473-6.549 1.3292-9.438 0.5925l-0.395 1.5503c3.237 0.8258 6.693 0.6015 10.343-0.6263l-0.51-1.5165zm-9.433 0.5936c-3.24-0.8465-5.088-2.6137-5.754-5.2794l-1.553 0.3881c0.834 3.3343 3.205 5.4734 6.902 6.4394l0.405-1.5481zm-5.735-5.1691c-0.058-0.5536-0.089-1.3189-0.089-2.3068h-1.6c0 1.012 0.031 1.8405 0.098 2.4743l1.591-0.1675zm-0.089-2.3068c0-0.8837 0.224-2.1081 0.714-3.7023l-1.529-0.4705c-0.509 1.6558-0.785 3.0564-0.785 4.1728h1.6zm0.712-3.6932c0.495-1.5453 1.33-3.0163 2.519-4.4134l-1.219-1.0369c-1.311 1.5404-2.257 3.1944-2.824 4.9616l1.524 0.4887zm2.519-4.4134c1.182-1.3887 2.566-2.4771 4.155-3.2717l-0.716-1.431c-1.786 0.8929-3.339 2.117-4.658 3.6658l1.219 1.0369zm4.155-3.2717c1.575-0.7876 3.249-1.1811 5.033-1.1811v-1.6c-2.03 0-3.949 0.4502-5.749 1.3501l0.716 1.431zm5.033-1.1811c1.631 0 3.527 0.5642 5.705 1.7743l0.777-1.3987c-2.322-1.2898-4.489-1.9756-6.482-1.9756v1.6zm5.703 1.7733c0.997 0.5573 1.758 1.1708 2.307 1.8294l1.229-1.0242c-0.701-0.8414-1.628-1.5717-2.755-2.2019l-0.781 1.3967zm2.307 1.8294c0.536 0.6432 0.752 1.2337 0.752 1.7848h1.6c0-1.0114-0.409-1.9522-1.123-2.809l-1.229 1.0242zm0.752 1.7848c0 0.1805-0.013 0.3614-0.039 0.5431l1.584 0.2263c0.037-0.2559 0.055-0.5124 0.055-0.7694h-1.6zm-0.046 0.63c-0.028 0.8297-0.238 1.4334-0.574 1.8717-0.334 0.4361-0.847 0.7799-1.609 0.9937l0.433 1.5404c1.019-0.2862 1.858-0.794 2.446-1.561 0.586-0.7648 0.867-1.7158 0.903-2.7924l-1.599-0.0524zm-2.182 2.8652c-0.695 0.1946-1.526 0.2985-2.503 0.2985v1.6c1.085 0 2.067-0.1148 2.934-0.3577l-0.431-1.5408zm-2.47 0.2992-6.75-0.2812-0.066 1.5986 6.75 0.2812 0.066-1.5986zm-6.783-0.2819c-2.351 0-4.278 0.5043-5.662 1.6332l1.011 1.2398c0.991-0.8086 2.502-1.273 4.651-1.273v-1.6zm-5.646 1.6201c-0.86 0.6646-1.423 1.632-1.737 2.8189l1.547 0.4094c0.248-0.938 0.654-1.5644 1.169-1.9623l-0.979-1.266zm-1.735 3.2356c0.429 1.5623 1.215 2.8011 2.394 3.6393 1.172 0.8332 2.653 1.2144 4.377 1.2144v-1.6001c-1.494 0-2.622-0.3297-3.45-0.9184-0.821-0.5836-1.426-1.4777-1.778-2.7591l-1.543 0.4239zm15.586-11.078c-0.756-0.5495-1.557-0.9524-2.403-1.1992l-0.448 1.5361c0.654 0.1907 1.29 0.5065 1.91 0.9571l0.941-1.294zm-2.403-1.1992c-0.787-0.2294-1.493-0.3601-2.099-0.3601v1.6c0.394 0 0.938 0.0881 1.651 0.2962l0.448-1.5361zm-2.099-0.3601c-0.631 0-1.545 0.2064-2.671 0.5506l0.467 1.5301c1.124-0.3433 1.835-0.4807 2.204-0.4807v-1.6zm-2.652 0.5448c-1.158 0.3219-2.201 0.6954-3.122 1.1234l0.673 1.4512c0.828-0.3845 1.786-0.7298 2.878-1.0329l-0.429-1.5417zm-3.122 1.1232c-1.118 0.5185-2.017 1.0753-2.647 1.687-0.634 0.6162-1.051 1.3454-1.051 2.1794h1.6c0-0.2597 0.122-0.6009 0.566-1.0315 0.448-0.4352 1.167-0.9018 2.205-1.3834l-0.673-1.4515zm-2.968 4.6634c2.505 0.2191 4.409 0.3311 5.695 0.3311v-1.6c-1.214 0-3.06-0.1067-5.555-0.3251l-0.14 1.594zm5.695 0.3311c1.754 0 3.243-0.0749 4.46-0.229 1.204-0.1525 2.196-0.3889 2.922-0.7424l-0.701-1.4384c-0.493 0.2403-1.283 0.4492-2.422 0.5935-1.127 0.1428-2.544 0.2163-4.259 0.2163v1.6zm7.339-0.9521c0.812-0.3384 1.617-0.923 1.617-1.9104h-1.6c0 0.0071 0 0.0105-3e-3 0.017-4e-3 0.0085-0.017 0.0337-0.055 0.0735-0.083 0.0865-0.255 0.2098-0.574 0.3429l0.615 1.477zm1.617-1.9104c0-0.9456-0.611-1.687-1.421-2.2504l-0.914 1.3134c0.628 0.4366 0.735 0.7577 0.735 0.937h1.6zm34-0.9375-0.465 0.651 0.288 0.2053 0.345-0.074-0.168-0.7823zm-10.453-0.3281 0.31 0.7376 9e-3 -0.0037-0.319-0.7339zm-6.422 5.0625-0.698-0.3912-4e-3 0.0073-4e-3 0.0074 0.706 0.3765zm-0.281 8.0625-0.782 0.1665v0.0034l0.782-0.1699zm0.469 4.4063 0.038 0.799 0.762-0.0362v-0.7628h-0.8zm-3.375 0.0468-0.64 0.48 0.018 0.0241 0.02 0.0227 0.602-0.5268zm-0.656-1.4531-0.79 0.1315 0.012 0.0671 0.022 0.0642 0.756-0.2628zm-0.563-4.7813-0.796 0.0797 2e-3 0.0196 0.794-0.0993zm-0.469-4.0781-0.795 0.0829 2e-3 0.0184 0.793-0.1013zm-0.468-4.4062 0.795-0.0865v-1e-3l-0.795 0.0875zm-0.797-6.8907h-0.8v0.0509l6e-3 0.0505 0.794-0.1014zm3.187-0.2812-0.665 0.4438 5e-3 0.0088 7e-3 0.0087 0.653-0.4613zm0.891 1.875-0.766 0.2329 3e-3 0.0097 0.763-0.2426zm0.422 2.0625-0.797 0.0724 2e-3 0.0179 2e-3 0.0178 0.793-0.1081zm0.234 1.4531-0.781 0.1736 0.296 1.3328 1.018-0.9099-0.533-0.5965zm17.531-5.4844-0.033 0.7994 0.083 0.0034 0.082-0.0136-0.132-0.7892zm1.547 0.5157-0.64 0.48 6e-3 0.0072 5e-3 7e-3 0.629-0.4942zm-0.332 3.5677c-1.481-1.0583-3.345-1.5552-5.527-1.5552v1.6c1.942 0 3.454 0.4406 4.597 1.2572l0.93-1.302zm-5.527-1.5552c-2.039 0-3.945 0.3787-5.709 1.1442l0.637 1.4678c1.548-0.672 3.236-1.012 5.072-1.012v-1.6zm-5.701 1.1405c-3.22 1.3525-5.535 3.1362-6.81 5.4089l1.396 0.7824c1.039-1.8523 3.004-3.4436 6.034-4.7161l-0.62-1.4752zm-6.818 5.4236c-0.561 1.0534-0.844 2.1827-0.844 3.3765h1.6c0-0.9312 0.218-1.8019 0.656-2.6235l-1.412-0.753zm-0.844 3.3765v0.0011 0.0011 0.0011 0.0012 0.0011 0.0011 0.0012 0.0011 0.0012 0.0012 0.0012 0.0012 0.0011 0.0013 0.0012 0.0012 0.0012 0.0012 0.0013 0.0012 0.0013 0.0013 0.0012 0.0013 0.0013 0.0013 0.0013 0.0013 0.0014 0.0013 0.0013 0.0014 0.0013 0.0014 0.0014 0.0013 0.0014 0.0014 0.0014 0.0014 0.0015 0.0014 0.0014 0.0015 0.0014 0.0015 0.0014 0.0015 0.0015 0.0015 0.0015 0.0015 0.0015 0.0015 0.0015 0.0016 0.0015 0.0016 0.0015 0.0016 0.0016 0.0015 0.0016 0.0016 0.0016 0.0016 0.0017 0.0016 0.0016 0.0017 0.0016 0.0017 0.0017 0.0016 0.0017 0.0017 0.0017 0.0017 0.0017 0.0018 0.0017 0.0017 0.0018 0.0017 0.0018 0.0018 0.0018 0.0017 0.0018 0.0018 0.0019 0.0018 0.0018 0.0018 0.0019 0.0018 0.0019 0.0018 0.0019 0.0019 0.0019 0.0019 0.0019 0.0019 0.0019 2e-3 0.0019 0.0019 2e-3 0.0019 2e-3 2e-3 2e-3 2e-3 2e-3 2e-3 2e-3 2e-3 2e-3 0.0021 2e-3 0.0021 2e-3 0.0021 0.0021 0.0021 0.0021 0.0021 0.0021 0.0021 0.0021 0.0022 0.0021 0.0022 0.0021 0.0022 0.0021 0.0022 0.0022 0.0022 0.0022 0.0022 0.0022 0.0023 0.0022 0.0023 0.0022 0.0023 0.0022 0.0023 0.0023 0.0023 0.0023 0.0023 0.0023 0.0023 0.0024 0.0023 0.0023 0.0024 0.0024 0.0023 0.0024 0.0024 0.0024 0.0024 0.0024 0.0024 0.0024 0.0025 0.0024 0.0024 0.0025 0.0025 0.0024 0.0025 0.0025 0.0025 0.0025 0.0025 0.0025 0.0026 0.0025 0.0025 0.0026 0.0025 0.0026 0.0026 0.0026 0.0026 0.0026 0.0026 0.0026 0.0026 0.0026 0.0027 0.0026 0.0027 0.0026 0.0027 0.0027 0.0026 0.0027 0.0027 0.0027 0.0028 0.0027 0.0027 0.0028 0.0027 0.0028 0.0027 0.0028 0.0028 0.0028 0.0027 0.0028 0.0029 0.0028 0.0028 0.0028 0.0029 0.0028 0.0029 0.0028 0.0029 0.0029 0.0029 0.0029 0.0029 0.0029 0.0029 0.0029 3e-3 0.0029 3e-3 0.0029 3e-3 3e-3 3e-3 3e-3 3e-3 3e-3 3e-3 3e-3 3e-3 0.0031 3e-3 0.0031 3e-3 0.0031 0.0031 0.0031 0.0031 0.0031 0.0031 0.0031 0.0031 0.0031 0.0032 0.0031 0.0032 0.0031 0.0032 0.0032 0.0032 0.0032 0.0032 0.0032 0.0032 0.0032 0.0033 0.0032 0.0033 0.0032 0.0033 0.0033 0.0032 0.0033 0.0033 0.0033 0.0034 0.0033 0.0033 0.0033 0.0034 0.0033 0.0034 0.0034 0.0033 0.0034 0.0034 0.0034 0.0034 0.0034 0.0035 0.0034 0.0034 0.0035 0.0034 0.0035 0.0035 0.0035 0.0034 0.0035 0.0035 0.0035 0.0036 0.0035 0.0035 0.0036 0.0035 0.0036 0.0035 0.0036 0.0036 0.0036 0.0036 0.0036 0.0036 0.0036 0.0036 0.0037 0.0036 0.0037 0.0036 0.0037 0.0037 0.0037 0.0037 0.0037 0.0037 0.0037 0.0037 0.0037 0.0038 0.0037 0.0038 0.0037 0.0038 0.0038 0.0038 0.0038 0.0038 0.0038 0.0038 0.0038 0.0038 0.0039 0.0038 0.0039 0.0038 0.0039 0.0039 0.0039 0.0039 0.0039 0.0039 0.0039 0.0039 4e-3 0.0039 4e-3 0.0039 4e-3 4e-3 4e-3 0.0039 4e-3 4e-3 0.0041 4e-3 4e-3 4e-3 0.0041 4e-3 0.0041 0.0041 0.0041 4e-3 0.0041 0.0041 0.0041 0.0042 0.0041 0.0041 0.0041 0.0042 0.0042 0.0041 0.0042 0.0042 0.0042 0.0041 0.0042 0.0043 0.0042 0.0042 0.0042 0.0043 0.0042 0.0043 0.0043 0.0042 0.0043 0.0043 0.0043 0.0043 0.0043 0.0043 0.0044 0.0043 0.0043 0.0044 0.0043 0.0044 0.0044 0.0044 0.0044 0.0044 0.0044 0.0044 0.0044 0.0044 0.0045 0.0044 0.0045 0.0044 0.0045 0.0045 0.0045 0.0045 0.0045 0.0045 0.0045 0.0045 0.0046 0.0045 0.0045 0.0046 0.0046 0.0045 0.0046 0.0046 0.0046 0.0046 0.0046 0.0046 0.0047 0.0046 0.0046 0.0047 0.0047 0.0046 0.0047 0.0047 0.0047 0.0047 0.0047 0.0047 0.0047 0.0047 0.0048 0.0047 0.0048 0.0047 0.0048 0.0048 0.0048 0.0048 0.0048 0.0048 0.0048 0.0048 0.0048 0.0049 0.0048 0.0049 0.0048 0.0049 0.0049 0.0049 0.0049 0.0049 0.0049 0.0049 0.0049 5e-3 0.0049 5e-3 0.0049 5e-3 5e-3 0.0049 5e-3 5e-3 5e-3 5e-3 0.0051 5e-3 5e-3 0.0051 5e-3 0.0051 0.0051 5e-3 0.0051 0.0051 0.0051 0.0051 0.0051 0.0052h1.6v-0.0052-0.0051-0.0051-0.0051-0.0051-0.0051-5e-3 -0.0051-0.0051-5e-3 -0.0051-5e-3 -5e-3 -0.0051-5e-3 -5e-3 -5e-3 -5e-3 -0.0049-5e-3 -5e-3 -0.0049-5e-3 -0.0049-5e-3 -0.0049-0.0049-0.0049-0.0049-0.0049-0.0049-0.0049-0.0049-0.0048-0.0049-0.0048-0.0049-0.0048-0.0048-0.0048-0.0048-0.0048-0.0048-0.0048-0.0048-0.0048-0.0047-0.0048-0.0047-0.0048-0.0047-0.0047-0.0047-0.0047-0.0047-0.0047-0.0047-0.0047-0.0046-0.0047-0.0047-0.0046-0.0046-0.0047-0.0046-0.0046-0.0046-0.0046-0.0046-0.0046-0.0045-0.0046-0.0046-0.0045-0.0045-0.0046-0.0045-0.0045-0.0045-0.0045-0.0045-0.0045-0.0045-0.0045-0.0044-0.0045-0.0044-0.0045-0.0044-0.0044-0.0044-0.0044-0.0044-0.0044-0.0044-0.0044-0.0044-0.0043-0.0044-0.0043-0.0043-0.0044-0.0043-0.0043-0.0043-0.0043-0.0043-0.0043-0.0042-0.0043-0.0043-0.0042-0.0043-0.0042-0.0042-0.0042-0.0043-0.0042-0.0041-0.0042-0.0042-0.0042-0.0041-0.0042-0.0042-0.0041-0.0041-0.0041-0.0042-0.0041-0.0041-0.0041-4e-3 -0.0041-0.0041-0.0041-4e-3 -0.0041-4e-3 -4e-3 -4e-3 -0.0041-4e-3 -4e-3 -0.0039-4e-3 -4e-3 -4e-3 -0.0039-4e-3 -0.0039-4e-3 -0.0039-0.0039-0.0039-0.0039-0.0039-0.0039-0.0039-0.0039-0.0038-0.0039-0.0038-0.0039-0.0038-0.0038-0.0038-0.0038-0.0038-0.0038-0.0038-0.0038-0.0038-0.0037-0.0038-0.0037-0.0038-0.0037-0.0037-0.0037-0.0037-0.0037-0.0037-0.0037-0.0037-0.0037-0.0036-0.0037-0.0036-0.0037-0.0036-0.0036-0.0036-0.0036-0.0036-0.0036-0.0036-0.0036-0.0035-0.0036-0.0035-0.0036-0.0035-0.0035-0.0036-0.0035-0.0035-0.0035-0.0034-0.0035-0.0035-0.0035-0.0034-0.0035-0.0034-0.0034-0.0035-0.0034-0.0034-0.0034-0.0034-0.0034-0.0033-0.0034-0.0034-0.0033-0.0034-0.0033-0.0033-0.0033-0.0034-0.0033-0.0033-0.0033-0.0032-0.0033-0.0033-0.0032-0.0033-0.0032-0.0033-0.0032-0.0032-0.0032-0.0032-0.0032-0.0032-0.0032-0.0032-0.0031-0.0032-0.0031-0.0032-0.0031-0.0031-0.0031-0.0031-0.0031-0.0031-0.0031-0.0031-0.0031-3e-3 -0.0031-3e-3 -0.0031-3e-3 -3e-3 -3e-3 -3e-3 -3e-3 -3e-3 -3e-3 -3e-3 -3e-3 -0.0029-3e-3 -0.0029-3e-3 -0.0029-0.0029-0.0029-0.0029-0.0029-0.0029-0.0029-0.0029-0.0028-0.0029-0.0028-0.0029-0.0028-0.0028-0.0028-0.0029-0.0028-0.0027-0.0028-0.0028-0.0028-0.0027-0.0028-0.0027-0.0028-0.0027-0.0027-0.0028-0.0027-0.0027-0.0027-0.0026-0.0027-0.0027-0.0026-0.0027-0.0026-0.0027-0.0026-0.0026-0.0026-0.0026-0.0026-0.0026-0.0026-0.0026-0.0026-0.0025-0.0026-0.0025-0.0025-0.0026-0.0025-0.0025-0.0025-0.0025-0.0025-0.0025-0.0024-0.0025-0.0025-0.0024-0.0024-0.0025-0.0024-0.0024-0.0024-0.0024-0.0024-0.0024-0.0024-0.0023-0.0024-0.0024-0.0023-0.0023-0.0024-0.0023-0.0023-0.0023-0.0023-0.0023-0.0023-0.0023-0.0022-0.0023-0.0022-0.0023-0.0022-0.0023-0.0022-0.0022-0.0022-0.0022-0.0022-0.0022-0.0021-0.0022-0.0021-0.0022-0.0021-0.0022-0.0021-0.0021-0.0021-0.0021-0.0021-0.0021-0.0021-0.0021-2e-3 -0.0021-2e-3 -0.0021-2e-3 -2e-3 -2e-3 -2e-3 -2e-3 -2e-3 -2e-3 -2e-3 -2e-3 -0.0019-2e-3 -0.0019-0.0019-2e-3 -0.0019-0.0019-0.0019-0.0019-0.0019-0.0019-0.0019-0.0018-0.0019-0.0018-0.0019-0.0018-0.0018-0.0018-0.0019-0.0018-0.0018-0.0017-0.0018-0.0018-0.0018-0.0017-0.0018-0.0017-0.0017-0.0018-0.0017-0.0017-0.0017-0.0017-0.0017-0.0016-0.0017-0.0017-0.0016-0.0017-0.0016-0.0016-0.0017-0.0016-0.0016-0.0016-0.0016-0.0015-0.0016-0.0016-0.0015-0.0016-0.0015-0.0016-0.0015-0.0015-0.0015-0.0015-0.0015-0.0015-0.0015-0.0015-0.0014-0.0015-0.0014-0.0015-0.0014-0.0014-0.0015-0.0014-0.0014-0.0014-0.0014-0.0013-0.0014-0.0014-0.0013-0.0014-0.0013-0.0013-0.0014-0.0013-0.0013-0.0013-0.0013-0.0013-0.0012-0.0013-0.0013-0.0012-0.0013-0.0012-0.0012-0.0012-0.0012-0.0013-0.0011-0.0012-0.0012-0.0012-0.0012-0.0011-0.0012-0.0011-0.0011-0.0012-0.0011-0.0011-0.0011h-1.6zm0 1.5938c0 0.9269 0.17 2.147 0.487 3.6352l1.565-0.333c-0.309-1.4493-0.452-2.5417-0.452-3.3022h-1.6zm0.487 3.6386c0.3 1.3806 0.451 2.7924 0.451 4.2364h1.6c0-1.5561-0.162-3.0818-0.487-4.5762l-1.564 0.3398zm1.213 3.4373c-0.691 0.0329-1.296 0.1165-1.791 0.2688l0.47 1.5292c0.318-0.0976 0.775-0.1703 1.397-0.1999l-0.076-1.5981zm-1.791 0.2688c-0.365 0.1122-0.624 0.1521-0.796 0.1521v1.6c0.39 0 0.819-0.0851 1.266-0.2229l-0.47-1.5292zm-0.796 0.1521c-0.017 0-0.028-0.0027-0.041-0.0093-0.016-0.0081-0.054-0.0312-0.107-0.0925l-1.204 1.0536c0.34 0.3891 0.798 0.6482 1.352 0.6482v-1.6zm-0.11-0.055c-0.105-0.1396-0.29-0.5151-0.541-1.2359l-1.511 0.5256c0.249 0.7167 0.502 1.31 0.772 1.6703l1.28-0.96zm-0.507-1.1046c-0.027-0.1587-0.087-0.6615-0.181-1.5475l-1.591 0.1705c0.092 0.864 0.157 1.4237 0.193 1.64l1.579-0.263zm-0.181-1.5475c-0.095-0.8812-0.221-1.9486-0.377-3.2015l-1.588 0.1985c0.156 1.2471 0.281 2.3047 0.374 3.1735l1.591-0.1705zm-0.375-3.1819c-0.126-1.2583-0.283-2.625-0.471-4.0998l-1.587 0.2026c0.186 1.4628 0.342 2.8148 0.466 4.0565l1.592-0.1593zm-0.469-4.0814c-0.156-1.5011-0.313-2.971-0.469-4.4098l-1.591 0.1729c0.156 1.4363 0.312 2.9038 0.469 4.4027l1.591-0.1658zm-0.469-4.4108c-0.344-3.1257-0.61-5.4284-0.799-6.9045l-1.587 0.2027c0.187 1.4614 0.452 3.7524 0.795 6.8767l1.591-0.1749zm-0.792-6.8032c0-0.0901 0.016-0.1303 0.022-0.1424 4e-3 -0.0083 0.011-0.0213 0.04-0.0415 0.079-0.0542 0.298-0.141 0.778-0.141v-1.6001c-0.613 0-1.215 0.1007-1.683 0.4215-0.522 0.3581-0.757 0.905-0.757 1.5035h1.6zm0.84-0.3249c0.38 0 0.65 0.1395 0.882 0.4875l1.331-0.8876c-0.518-0.777-1.279-1.2-2.213-1.2v1.6001zm0.894 0.505c0.318 0.4517 0.581 0.9971 0.778 1.6466l1.531-0.4658c-0.24-0.788-0.571-1.4926-1.002-2.1034l-1.307 0.9226zm0.781 1.6563c0.202 0.6347 0.331 1.2652 0.388 1.8923l1.593-0.1448c-0.068-0.7479-0.22-1.4924-0.456-2.2327l-1.525 0.4852zm0.392 1.928c0.094 0.6875 0.176 1.2015 0.246 1.5186l1.562-0.3471c-0.055-0.2454-0.129-0.7002-0.223-1.3877l-1.585 0.2162zm1.56 1.9415c3.963-3.5421 8.891-5.3277 14.842-5.3277v-1.6c-6.299 0-11.62 1.9018-15.908 5.7348l1.066 1.1929zm14.842-5.3277c0.676 0 1.383 0.0153 2.123 0.0462l0.067-1.5987c-0.76-0.0316-1.49-0.0475-2.19-0.0475v1.6zm2.288 0.036c0.129-0.0215 0.315-0.036 0.571-0.036v-1.6c-0.306 0-0.588 0.0167-0.834 0.0577l0.263 1.5783zm0.571-0.036c-0.046 0-0.058-0.0178-0.021 0.0062 0.042 0.0282 0.12 0.0954 0.225 0.2363l1.28-0.96c-0.332-0.4434-0.821-0.8825-1.484-0.8825v1.6zm0.215 0.2567c0.22 0.2793 0.345 0.6305 0.345 1.0995h1.6c0-0.7809-0.219-1.4922-0.687-2.088l-1.258 0.9885zm0.345 1.0995c0 0.7233-0.104 1.191-0.244 1.4704-0.121 0.2433-0.261 0.3347-0.436 0.3724l0.335 1.5645c0.699-0.1499 1.216-0.5897 1.532-1.2214 0.298-0.5956 0.413-1.3467 0.413-2.1859h-1.6z" fill="#231613"/>
</svg>
