<svg width="167" height="24" viewBox="0 0 167 24" fill="none" xmlns="http://www.w3.org/2000/svg">
<path fill-rule="evenodd" clip-rule="evenodd" d="M11.4488 2.115C11.7987 2.15501 11.9688 2.555 11.7987 2.85502L7.76878 9.84501C7.56877 10.175 7.08879 10.175 6.89879 9.84501L3.88878 4.62501C3.75877 4.40501 3.81877 4.12501 4.00877 3.97501C6.14879 2.395 8.82878 1.745 11.4488 2.115ZM13.9388 2.82499C16.3688 3.865 18.3088 5.85499 19.2888 8.32499C19.4187 8.645 19.1687 8.995 18.8188 8.995H10.7388C10.3488 8.995 10.1087 8.57499 10.2987 8.25498L13.3088 3.04499C13.4388 2.82499 13.7088 2.72498 13.9388 2.82499ZM19.3587 9.995H13.1587C12.7787 9.995 12.5287 10.415 12.7287 10.745L16.9888 18.135C17.1587 18.435 17.5887 18.485 17.8088 18.215C19.5487 16.035 20.2887 13.185 19.8587 10.425C19.8287 10.175 19.6087 9.995 19.3587 9.995ZM0.118757 13.575C-0.311236 10.805 0.438764 7.97501 2.16874 5.78501C2.37877 5.51502 2.80876 5.56501 2.98875 5.86503L7.24876 13.245C7.44871 13.575 7.19871 13.995 6.81877 13.995H0.618757C0.368757 13.995 0.148725 13.815 0.118757 13.575ZM0.688764 15.665C1.66874 18.135 3.60875 20.125 6.03874 21.165C6.26878 21.265 6.53874 21.165 6.66874 20.945L9.67875 15.735C9.86876 15.405 9.62877 14.985 9.24876 14.985H1.15873C0.808759 14.995 0.558759 15.345 0.688764 15.665ZM15.9588 20.025C13.8188 21.605 11.1388 22.255 8.51878 21.885C8.17875 21.835 7.99876 21.435 8.16874 21.135L12.2088 14.145C12.4087 13.815 12.8888 13.815 13.0788 14.145L16.0888 19.365C16.2188 19.585 16.1587 19.875 15.9588 20.025Z" fill="#13333a" fill-opacity="1"/>
<path d="M35.7637 18.0791L32.2744 7.83984H30.9824V5.77441H36.4932V7.83984H35.2275L37.2139 13.7109L39.0771 7.83984H37.9697V5.77441H42.3643V7.83984H41.2305L43.2344 13.7109L45.1592 7.83984H43.9375V5.77441H48.833V7.83984H47.5059L44.1309 18.0791H41.8457L39.9209 12.498L38.1016 18.0791H35.7637ZM49.7734 18V16.04H51.1445V7.73438H49.7734V5.77441H53.8516V10.1777C54.707 9.58008 55.5127 9.28125 56.2686 9.28125C58.0088 9.28125 58.8789 10.3271 58.8789 12.4189V16.04H60.127V18H56.1631V12.542C56.1631 12.1436 56.0898 11.8711 55.9434 11.7246C55.8027 11.5723 55.5889 11.4961 55.3018 11.4961C54.8975 11.4961 54.4141 11.6748 53.8516 12.0322V16.04H55.0645V18H49.7734ZM70.7705 16.04V18H66.6836V17.332C65.9512 17.8594 65.1777 18.123 64.3633 18.123C63.5195 18.123 62.79 17.8828 62.1748 17.4023C61.5654 16.9219 61.2607 16.2773 61.2607 15.4688C61.2607 14.6543 61.583 13.9717 62.2275 13.4209C62.8721 12.8701 63.7041 12.5947 64.7236 12.5947C65.292 12.5947 65.9453 12.7383 66.6836 13.0254V12.5068C66.6836 12.0732 66.5371 11.7188 66.2441 11.4434C65.9512 11.1621 65.5586 11.0215 65.0664 11.0215C64.457 11.0215 63.9355 11.2441 63.502 11.6895L61.3135 11.2939C61.9463 9.95215 63.3203 9.28125 65.4355 9.28125C66.2559 9.28125 66.9355 9.375 67.4746 9.5625C68.0137 9.74414 68.415 9.98145 68.6787 10.2744C68.9424 10.5674 69.127 10.8896 69.2324 11.2412C69.3438 11.5869 69.3994 12.1523 69.3994 12.9375V16.04H70.7705ZM66.6836 14.8535C66.0273 14.4434 65.5029 14.2383 65.1104 14.2383C64.7998 14.2383 64.5156 14.3291 64.2578 14.5107C64.0059 14.6924 63.8799 14.9561 63.8799 15.3018C63.8799 15.6123 63.9824 15.8789 64.1875 16.1016C64.3926 16.3242 64.6562 16.4355 64.9785 16.4355C65.4824 16.4355 66.0508 16.1396 66.6836 15.5479V14.8535ZM71.3682 11.4609V9.49219H72.4492V8.15625L75.165 6.20508V9.49219H76.7295V11.4609H75.165V15.1436C75.165 15.4775 75.2061 15.7031 75.2881 15.8203C75.376 15.9316 75.5723 15.9873 75.877 15.9873C76.1289 15.9873 76.4131 15.9287 76.7295 15.8115V17.6924C76.0322 17.9795 75.3496 18.123 74.6816 18.123C73.1934 18.123 72.4492 17.3848 72.4492 15.9082V11.4609H71.3682ZM84.7275 15.4336L86.8369 16.1104C85.9521 17.499 84.5693 18.1934 82.6885 18.1934C81.1885 18.1934 80.0166 17.7979 79.1729 17.0068C78.335 16.2158 77.916 15.1758 77.916 13.8867C77.916 12.5742 78.3496 11.4785 79.2168 10.5996C80.084 9.7207 81.1885 9.28125 82.5303 9.28125C83.5029 9.28125 84.3438 9.52734 85.0527 10.0195C85.7617 10.5117 86.2539 11.124 86.5293 11.8564C86.8047 12.5889 86.9424 13.4062 86.9424 14.3086H80.6055C80.6465 15.082 80.8896 15.6299 81.335 15.9521C81.7861 16.2744 82.2607 16.4355 82.7588 16.4355C83.4092 16.4355 84.0654 16.1016 84.7275 15.4336ZM84.209 12.7969C84.1445 12.3223 83.957 11.918 83.6465 11.584C83.3418 11.25 82.9229 11.083 82.3896 11.083C81.3936 11.083 80.8135 11.6543 80.6494 12.7969H84.209ZM91.6182 18.123L88.7441 11.4609H87.5137V9.49219H92.6729V11.4609H91.6182L92.9453 15.3281L94.5098 11.4609H93.3936V9.49219H97.9023V11.4609H96.6895L93.9297 18.123H91.6182ZM104.907 15.4336L107.017 16.1104C106.132 17.499 104.749 18.1934 102.868 18.1934C101.368 18.1934 100.196 17.7979 99.3525 17.0068C98.5146 16.2158 98.0957 15.1758 98.0957 13.8867C98.0957 12.5742 98.5293 11.4785 99.3965 10.5996C100.264 9.7207 101.368 9.28125 102.71 9.28125C103.683 9.28125 104.523 9.52734 105.232 10.0195C105.941 10.5117 106.434 11.124 106.709 11.8564C106.984 12.5889 107.122 13.4062 107.122 14.3086H100.785C100.826 15.082 101.069 15.6299 101.515 15.9521C101.966 16.2744 102.44 16.4355 102.938 16.4355C103.589 16.4355 104.245 16.1016 104.907 15.4336ZM104.389 12.7969C104.324 12.3223 104.137 11.918 103.826 11.584C103.521 11.25 103.103 11.083 102.569 11.083C101.573 11.083 100.993 11.6543 100.829 12.7969H104.389ZM114.197 16.04V18H108.212V16.04H109.785V11.4609H108.309V9.49219H112.272V11.6543C112.425 11.0332 112.771 10.4971 113.31 10.0459C113.854 9.58887 114.496 9.36035 115.234 9.36035C115.357 9.36035 115.504 9.36328 115.674 9.36914V11.9355C114.988 11.9355 114.429 12.0117 113.995 12.1641C113.562 12.3164 113.204 12.6504 112.923 13.166C112.642 13.6816 112.501 14.291 112.501 14.9941V16.04H114.197Z" fill="#13333a" fill-opacity="1"/>
</svg>
