<svg width="86" height="14" viewBox="0 0 86 14" fill="none" xmlns="http://www.w3.org/2000/svg">
<path d="M5.76367 13.0791L2.27441 2.83984H0.982422V0.774414H6.49316V2.83984H5.22754L7.21387 8.71094L9.07715 2.83984H7.96973V0.774414H12.3643V2.83984H11.2305L13.2344 8.71094L15.1592 2.83984H13.9375V0.774414H18.833V2.83984H17.5059L14.1309 13.0791H11.8457L9.9209 7.49805L8.10156 13.0791H5.76367ZM19.7734 13V11.04H21.1445V2.73438H19.7734V0.774414H23.8516V5.17773C24.707 4.58008 25.5127 4.28125 26.2686 4.28125C28.0088 4.28125 28.8789 5.32715 28.8789 7.41895V11.04H30.127V13H26.1631V7.54199C26.1631 7.14355 26.0898 6.87109 25.9434 6.72461C25.8027 6.57227 25.5889 6.49609 25.3018 6.49609C24.8975 6.49609 24.4141 6.6748 23.8516 7.03223V11.04H25.0645V13H19.7734ZM40.7705 11.04V13H36.6836V12.332C35.9512 12.8594 35.1777 13.123 34.3633 13.123C33.5195 13.123 32.79 12.8828 32.1748 12.4023C31.5654 11.9219 31.2607 11.2773 31.2607 10.4688C31.2607 9.6543 31.583 8.97168 32.2275 8.4209C32.8721 7.87012 33.7041 7.59473 34.7236 7.59473C35.292 7.59473 35.9453 7.73828 36.6836 8.02539V7.50684C36.6836 7.07324 36.5371 6.71875 36.2441 6.44336C35.9512 6.16211 35.5586 6.02148 35.0664 6.02148C34.457 6.02148 33.9355 6.24414 33.502 6.68945L31.3135 6.29395C31.9463 4.95215 33.3203 4.28125 35.4355 4.28125C36.2559 4.28125 36.9355 4.375 37.4746 4.5625C38.0137 4.74414 38.415 4.98145 38.6787 5.27441C38.9424 5.56738 39.127 5.88965 39.2324 6.24121C39.3438 6.58691 39.3994 7.15234 39.3994 7.9375V11.04H40.7705ZM36.6836 9.85352C36.0273 9.44336 35.5029 9.23828 35.1104 9.23828C34.7998 9.23828 34.5156 9.3291 34.2578 9.51074C34.0059 9.69238 33.8799 9.95605 33.8799 10.3018C33.8799 10.6123 33.9824 10.8789 34.1875 11.1016C34.3926 11.3242 34.6562 11.4355 34.9785 11.4355C35.4824 11.4355 36.0508 11.1396 36.6836 10.5479V9.85352ZM41.3682 6.46094V4.49219H42.4492V3.15625L45.165 1.20508V4.49219H46.7295V6.46094H45.165V10.1436C45.165 10.4775 45.2061 10.7031 45.2881 10.8203C45.376 10.9316 45.5723 10.9873 45.877 10.9873C46.1289 10.9873 46.4131 10.9287 46.7295 10.8115V12.6924C46.0322 12.9795 45.3496 13.123 44.6816 13.123C43.1934 13.123 42.4492 12.3848 42.4492 10.9082V6.46094H41.3682ZM54.7275 10.4336L56.8369 11.1104C55.9521 12.499 54.5693 13.1934 52.6885 13.1934C51.1885 13.1934 50.0166 12.7979 49.1729 12.0068C48.335 11.2158 47.916 10.1758 47.916 8.88672C47.916 7.57422 48.3496 6.47852 49.2168 5.59961C50.084 4.7207 51.1885 4.28125 52.5303 4.28125C53.5029 4.28125 54.3438 4.52734 55.0527 5.01953C55.7617 5.51172 56.2539 6.12402 56.5293 6.85645C56.8047 7.58887 56.9424 8.40625 56.9424 9.30859H50.6055C50.6465 10.082 50.8896 10.6299 51.335 10.9521C51.7861 11.2744 52.2607 11.4355 52.7588 11.4355C53.4092 11.4355 54.0654 11.1016 54.7275 10.4336ZM54.209 7.79688C54.1445 7.32227 53.957 6.91797 53.6465 6.58398C53.3418 6.25 52.9229 6.08301 52.3896 6.08301C51.3936 6.08301 50.8135 6.6543 50.6494 7.79688H54.209ZM61.6182 13.123L58.7441 6.46094H57.5137V4.49219H62.6729V6.46094H61.6182L62.9453 10.3281L64.5098 6.46094H63.3936V4.49219H67.9023V6.46094H66.6895L63.9297 13.123H61.6182ZM74.9072 10.4336L77.0166 11.1104C76.1318 12.499 74.749 13.1934 72.8682 13.1934C71.3682 13.1934 70.1963 12.7979 69.3525 12.0068C68.5146 11.2158 68.0957 10.1758 68.0957 8.88672C68.0957 7.57422 68.5293 6.47852 69.3965 5.59961C70.2637 4.7207 71.3682 4.28125 72.71 4.28125C73.6826 4.28125 74.5234 4.52734 75.2324 5.01953C75.9414 5.51172 76.4336 6.12402 76.709 6.85645C76.9844 7.58887 77.1221 8.40625 77.1221 9.30859H70.7852C70.8262 10.082 71.0693 10.6299 71.5146 10.9521C71.9658 11.2744 72.4404 11.4355 72.9385 11.4355C73.5889 11.4355 74.2451 11.1016 74.9072 10.4336ZM74.3887 7.79688C74.3242 7.32227 74.1367 6.91797 73.8262 6.58398C73.5215 6.25 73.1025 6.08301 72.5693 6.08301C71.5732 6.08301 70.9932 6.6543 70.8291 7.79688H74.3887ZM84.1973 11.04V13H78.2119V11.04H79.7852V6.46094H78.3086V4.49219H82.2725V6.6543C82.4248 6.0332 82.7705 5.49707 83.3096 5.0459C83.8545 4.58887 84.4961 4.36035 85.2344 4.36035C85.3574 4.36035 85.5039 4.36328 85.6738 4.36914V6.93555C84.9883 6.93555 84.4287 7.01172 83.9951 7.16406C83.5615 7.31641 83.2041 7.65039 82.9229 8.16602C82.6416 8.68164 82.501 9.29102 82.501 9.99414V11.04H84.1973Z" fill="black" fill-opacity="0.54"/>
</svg>
