<svg width="20" height="20" viewBox="0 0 20 20" fill="none" xmlns="http://www.w3.org/2000/svg">
<path fill-rule="evenodd" clip-rule="evenodd" d="M11.4488 0.114997C11.7987 0.155006 11.9688 0.555 11.7987 0.855018L7.76878 7.84501C7.56877 8.175 7.08879 8.175 6.89879 7.84501L3.88878 2.62501C3.75877 2.40501 3.81877 2.12501 4.00877 1.97501C6.14879 0.394996 8.82878 -0.254998 11.4488 0.114997ZM13.9388 0.824989C16.3688 1.865 18.3088 3.85499 19.2888 6.32499C19.4187 6.645 19.1687 6.995 18.8188 6.995H10.7388C10.3488 6.995 10.1087 6.57499 10.2987 6.25498L13.3088 1.04499C13.4388 0.824989 13.7088 0.724983 13.9388 0.824989ZM19.3587 7.995H13.1587C12.7787 7.995 12.5287 8.41502 12.7287 8.745L16.9888 16.135C17.1587 16.435 17.5887 16.485 17.8088 16.215C19.5487 14.035 20.2887 11.185 19.8587 8.425C19.8287 8.175 19.6087 7.995 19.3587 7.995ZM0.118757 11.575C-0.311236 8.805 0.438764 5.97501 2.16874 3.78501C2.37877 3.51502 2.80876 3.56501 2.98875 3.86503L7.24876 11.245C7.44871 11.575 7.19871 11.995 6.81877 11.995H0.618757C0.368757 11.995 0.148725 11.815 0.118757 11.575ZM0.688764 13.665C1.66874 16.135 3.60875 18.125 6.03874 19.165C6.26878 19.265 6.53874 19.165 6.66874 18.945L9.67875 13.735C9.86876 13.405 9.62877 12.985 9.24876 12.985H1.15873C0.808759 12.995 0.558759 13.345 0.688764 13.665ZM15.9588 18.025C13.8188 19.605 11.1388 20.255 8.51878 19.885C8.17875 19.835 7.99876 19.435 8.16874 19.135L12.2088 12.145C12.4087 11.815 12.8888 11.815 13.0788 12.145L16.0888 17.365C16.2188 17.585 16.1587 17.875 15.9588 18.025Z" fill="black" fill-opacity="0.54"/>
</svg>
